<?xml version="1.0" encoding="utf-8"?>
<!-- Generator: Adobe Illustrator 21.0.2, SVG Export Plug-In . SVG Version: 6.00 Build 0)  -->
<svg version="1.1" id="Layer_1" xmlns="http://www.w3.org/2000/svg" xmlns:xlink="http://www.w3.org/1999/xlink" x="0px" y="0px"
	 viewBox="0 0 100 100" style="enable-background:new 0 0 100 100;" xml:space="preserve">
<path d="M18.7,34.8c0.6,0.6,0.9,1.3,0.9,2.1c0,0.8-0.3,1.6-0.9,2.1c-0.1,0.1-0.3,0.3-0.5,0.4c-0.2,0.1-0.3,0.2-0.5,0.3
	c-0.2,0.1-0.4,0.1-0.6,0.2c-0.2,0-0.4,0.1-0.6,0.1c-0.2,0-0.4,0-0.6-0.1c-0.2,0-0.4-0.1-0.6-0.2c-0.2-0.1-0.4-0.2-0.5-0.3
	c-0.2-0.1-0.3-0.2-0.4-0.4c-0.6-0.6-0.9-1.3-0.9-2.1c0-0.8,0.3-1.6,0.9-2.1c0.1-0.1,0.3-0.3,0.4-0.4c0.2-0.1,0.3-0.2,0.5-0.3
	c0.2-0.1,0.4-0.1,0.6-0.2c0.4-0.1,0.8-0.1,1.2,0c0.2,0,0.4,0.1,0.6,0.2c0.2,0.1,0.4,0.2,0.5,0.3C18.4,34.6,18.6,34.7,18.7,34.8z
	 M93.8,40.8L69.8,82.2c-1.7,2.9-4.7,4.5-7.8,4.5c-1.5,0-3.1-0.4-4.5-1.2L50,81.1l-7.7,4.4c-1.4,0.8-2.9,1.2-4.5,1.2
	c-0.8,0-1.6-0.1-2.4-0.3c-2.3-0.6-4.3-2.1-5.5-4.2L6.1,40.6c-2.5-4.3-1-9.8,3.3-12.3l24.2-13.9c2.1-1.2,4.5-1.5,6.8-0.9
	c2.3,0.6,4.3,2.1,5.5,4.2l4.1,7.1l4.1-7.1c1.2-2.1,3.1-3.6,5.5-4.2c2.3-0.6,4.8-0.3,6.8,0.9l24.1,14c2.1,1.2,3.6,3.2,4.2,5.5
	C95.4,36.3,95,38.7,93.8,40.8z M44,77.7l-10.6-6.2c-2.1-1.2-3.6-3.1-4.2-5.5s-0.3-4.8,0.9-6.8l16.4-28.3l-5.8-10.1
	c-0.4-0.7-1-1.2-1.8-1.4c-0.8-0.2-1.6-0.1-2.3,0.3L12.4,33.6c-1.4,0.8-1.9,2.7-1.1,4.1l23.9,41.6c0.4,0.7,1,1.2,1.8,1.4
	c0.8,0.2,1.6,0.1,2.3-0.3L44,77.7z M87.6,33.7l-24.1-14c-0.7-0.4-1.5-0.5-2.3-0.3c-0.8,0.2-1.4,0.7-1.8,1.4L35.3,62.2
	c-0.4,0.7-0.5,1.5-0.3,2.3c0.2,0.8,0.7,1.4,1.4,1.8l24.1,14c1.4,0.8,3.3,0.3,4.1-1.1l24.1-41.5C89.5,36.3,89,34.5,87.6,33.7z
	 M70.9,53.9c0,0.1,0,0.2,0,0.2c0,0.1,0,0.1,0,0.2c0,0.1,0,0.1,0,0.2c0,0.1,0,0.1-0.1,0.2s0,0.1-0.1,0.2c0,0.1,0,0.1-0.1,0.2
	c0,0.1-0.1,0.1-0.1,0.2c0,0-0.1,0.1-0.1,0.1c0,0-0.1,0.1-0.1,0.1c0,0-0.1,0.1-0.1,0.1c-0.1,0-0.1,0.1-0.2,0.1
	c-0.1,0-0.1,0.1-0.2,0.1c0,0-0.1,0-0.1,0.1l-12,4.9c0,0,0,0,0,0c-0.1,0-0.1,0-0.2,0c-0.1,0-0.1,0-0.2,0c0,0,0,0,0,0
	c-0.1,0-0.2,0-0.2,0c0,0,0,0,0,0s0,0,0,0c-0.2,0-0.3,0-0.5-0.1c0,0-0.1,0-0.1,0c-0.2-0.1-0.3-0.1-0.5-0.2c0,0,0,0-0.1,0
	c-0.1-0.1-0.3-0.2-0.4-0.3c0,0,0,0,0,0c-0.1-0.1-0.2-0.3-0.3-0.5c0,0,0,0,0,0c0,0,0,0,0-0.1c0-0.1,0-0.1-0.1-0.2c0-0.1,0-0.1,0-0.2
	c0,0,0,0,0,0l-1.8-12.9c0,0,0-0.1,0-0.1c0-0.1,0-0.2,0-0.2c0-0.1,0-0.1,0-0.2c0-0.1,0-0.1,0-0.2c0-0.1,0-0.1,0-0.2
	c0-0.1,0-0.1,0.1-0.2c0,0,0-0.1,0.1-0.2c0-0.1,0.1-0.1,0.1-0.2c0,0,0.1-0.1,0.1-0.1c0,0,0.1-0.1,0.1-0.2c0,0,0.1-0.1,0.1-0.1
	c0.1,0,0.1-0.1,0.2-0.1c0.1,0,0.1-0.1,0.2-0.1c0,0,0.1,0,0.1-0.1l12-4.9c0,0,0,0,0,0c0.1,0,0.1,0,0.2-0.1c0.1,0,0.1,0,0.2,0
	c0,0,0,0,0,0c0,0,0.1,0,0.1,0c0.1,0,0.2,0,0.2,0c0.1,0,0.1,0,0.2,0s0.1,0,0.2,0c0.1,0,0.1,0,0.2,0.1c0.1,0,0.1,0,0.2,0.1
	c0,0,0.1,0,0.1,0.1c0.1,0,0.1,0.1,0.2,0.1c0,0,0.1,0.1,0.1,0.1c0.1,0,0.1,0.1,0.2,0.2c0,0,0.1,0.1,0.1,0.1c0,0.1,0.1,0.1,0.1,0.2
	c0,0.1,0.1,0.1,0.1,0.2c0,0,0,0.1,0.1,0.1c0,0,0,0,0,0c0,0.1,0,0.1,0.1,0.2c0,0.1,0,0.1,0.1,0.2c0,0,0,0,0,0l1.8,12.9
	C70.9,53.8,70.8,53.8,70.9,53.9z M66.7,52.7L65.5,44l-8.2,3.3l1.2,8.8L66.7,52.7z M60.9,27.4c0.2,0.1,0.3,0.2,0.5,0.3
	c0.2,0.1,0.4,0.1,0.6,0.2c0.2,0,0.4,0.1,0.6,0.1c0.8,0,1.6-0.3,2.1-0.9s0.9-1.3,0.9-2.1c0-0.8-0.3-1.6-0.9-2.1
	C64,22.1,63,21.8,62,22c-0.2,0-0.4,0.1-0.6,0.2c-0.2,0.1-0.4,0.2-0.5,0.3c-0.2,0.1-0.3,0.2-0.4,0.4c-0.6,0.6-0.9,1.3-0.9,2.1
	c0,0.8,0.3,1.6,0.9,2.1C60.6,27.2,60.8,27.3,60.9,27.4z M59.2,72.9c-0.6,0.6-0.9,1.3-0.9,2.1c0,0.2,0,0.4,0.1,0.6
	c0,0.2,0.1,0.4,0.2,0.6c0.1,0.2,0.2,0.4,0.3,0.5c0.1,0.2,0.2,0.3,0.4,0.5c0.6,0.6,1.3,0.9,2.1,0.9c0.2,0,0.4,0,0.6-0.1
	c0.2,0,0.4-0.1,0.6-0.2c0.2-0.1,0.3-0.2,0.5-0.3c0.2-0.1,0.3-0.2,0.4-0.4c0.1-0.1,0.3-0.3,0.4-0.5c0.1-0.2,0.2-0.3,0.3-0.5
	c0.1-0.2,0.1-0.4,0.2-0.6c0-0.2,0.1-0.4,0.1-0.6c0-0.8-0.3-1.6-0.9-2.1C62.4,71.8,60.4,71.8,59.2,72.9z"/>
</svg>
