<svg height="333" viewBox="0 0 187.18163 266.90807" width="234" xmlns="http://www.w3.org/2000/svg"><rect fill="#fff" height="266.30219" rx="7.148958" ry="7.170243" stroke="#808080" stroke-width=".605879" width="186.95114" x=".115243" y=".30294"/><g stroke="#f00"><path d="m177.50319 250.02759c0 3.85241-3.10901 7.01109-6.92147 7.01109h-153.991147c-3.803119 0-6.9121236-3.15868-6.9121236-7.01109v-233.146106c0-3.857394 3.1090046-7.0120851 6.9121236-7.0120851h153.991147c3.81246 0 6.92147 3.1546911 6.92147 7.0120851z" fill="#fff" stroke-width="1.286449"/><path d="m37.267911 42.899959h104.219039c.81858 0 8.69242-.379759 8.69242.30002v11.443106 56.803875 110.23128c0 .26114.17512 1.45325-.14364 1.45325-1.55746 0-3.11393 0-4.67039 0-8.0844 0-16.16782 0-24.25122 0-21.936194 0-43.8714 0-65.807098 0-5.785109 0-11.570218 0-17.354835 0-1.47235 0-.684276-4.14645-.684276-5.33257 0-16.53797 0-33.07592 0-49.61388 0-39.89562 0-79.79075 0-119.686377 0-1.8664 0-3.732303 0-5.598704" fill="#fb0f0c" fill-rule="evenodd" stroke-miterlimit="10" stroke-width=".026808"/><path d="m71.54419 107.68874c4.504614 0 44.35743-.32095 44.35743.31696v51.31033c0 .51431-44.35743.0618-44.35743.19137 0-17.00742 0-34.01484 0-51.02226 0-.26564 0-.53127 0-.7964" fill="#fff" fill-rule="evenodd" stroke-miterlimit="10" stroke-width=".026808"/><path d="m93.723395 102.97664c-4.368349 5.10481-8.737189 10.20913-13.106028 15.31395-2.945683 3.44225-5.891367 6.884-8.837541 10.32626-.683784.79889-4.268487 3.87733-4.268487 4.9872 0 1.02066 3.297907 3.8534 3.925611 4.58701 3.060303 3.57631 6.120606 7.15063 9.180417 10.72695 4.368839 5.10432 8.737679 10.20863 13.106028 15.31395 4.368347-5.10532 8.736695-10.20963 13.106025-15.31395 2.94568-3.44276 5.89137-6.88451 8.83705-10.32626.68378-.79938 4.26897-3.87733 4.26897-4.9877 0-1.02067-3.29789-3.85291-3.9256-4.58651-3.05981-3.57582-6.12061-7.15114-9.18042-10.72695-4.36933-5.10482-8.737678-10.20914-13.106025-15.31395" fill="#fff" fill-rule="evenodd" stroke-miterlimit="10" stroke-width=".026808"/><path d="m73.560616 110.04454h25.042735 13.472029c2.32289 0 1.8103.20035 1.8103 2.56063v31.05502 12.15827c0 2.14199-1.22687 1.3456-3.25167 1.3456-8.80359 0-17.606698 0-26.409804 0-3.227068 0-6.454628 0-9.681696 0-1.588937 0-.981894-1.0416-.981894-2.56063 0-14.85346 0-29.70593 0-44.55889" fill="#fb0f0c" fill-rule="evenodd" stroke-miterlimit="10" stroke-width=".026808"/><path d="m93.723395 105.33294c-3.95611 4.62239-7.911728 9.24479-11.867837 13.86718-2.820241 3.29523-5.640482 6.59046-8.460723 9.88569-.618848.72364-3.86707 3.51303-3.86707 4.51824 0 .917 2.961917 3.46069 3.52567 4.11954 2.780886 3.24938 5.561773 6.49876 8.342659 9.74815 4.1091 4.8013 8.2182 9.60261 12.327301 14.40392 3.956108-4.6229 7.912215-9.24479 11.867345-13.86669 2.82073-3.29522 5.64146-6.59046 8.46121-9.88568.61885-.72365 3.86658-3.51353 3.86658-4.51924 0-.91651-2.96142-3.46069-3.52517-4.11904-2.78138-3.24938-5.56178-6.49876-8.34217-9.74814-4.1096-4.80132-8.219187-9.60262-12.327795-14.40393" fill="#fb0f0c" fill-rule="evenodd" stroke-miterlimit="10" stroke-width=".026808"/><path d="m77.592975 114.75664h26.269115c1.09307 0 5.99074-.74806 5.99074.60403v11.98982c0 1.75825.0216 25.10197-.0197 25.10197-8.93346 0-17.865948 0-26.799417 0-1.066506 0-5.440757.73759-5.440757-.60502 0-3.99595 0-7.99289 0-11.98982 0-8.36666 0-16.73382 0-25.10098" fill="#fff" fill-rule="evenodd" stroke-miterlimit="10" stroke-width=".026808"/><path d="m93.723395 110.04454c-3.360381 3.92667-6.720763 7.85334-10.081144 11.78001-2.252552 2.63189-4.505105 5.26379-6.757656 7.8957-.53227.62196-3.323979 3.01962-3.323979 3.8838 0 .77547 2.50393 2.92644 2.980119 3.48262 2.367171 2.76596 4.734344 5.53192 7.101516 8.29689 3.360381 3.92716 6.720762 7.85433 10.081144 11.7805 3.360872-3.92617 6.720765-7.85334 10.080655-11.7805 2.25304-2.63141 4.50608-5.2628 6.75716-7.8952.53325-.62197 3.32447-3.02014 3.32447-3.88431 0-.77447-2.50393-2.92544-2.98012-3.48212-2.36717-2.76596-4.73434-5.53142-7.10151-8.29738-3.35989-3.92667-6.719783-7.85334-10.080655-11.78001" fill="#fff" fill-rule="evenodd" stroke-miterlimit="10" stroke-width=".026808"/><path d="m79.6094 117.11245h25.80424c3.10606 0 2.42326.27859 2.42326 3.43029v15.87611 12.99155c0 1.52302-5.27842.68576-6.51022.68576-5.453547 0-10.908079 0-16.362118 0-1.90279 0-5.355162 1.12531-5.355162-1.19411 0-10.59636 0-21.19274 0-31.7896" fill="#fb0f0c" fill-rule="evenodd" stroke-miterlimit="10" stroke-width=".026808"/><path d="m93.723395 112.40034c-2.947159 3.44425-5.89481 6.88849-8.842462 10.33273-2.127109 2.48538-4.254219 4.97126-6.381822 7.45664-.467334.54621-2.922069 2.65482-2.922069 3.41434 0 .67081 2.168432 2.53372 2.580178 3.01514 2.087756 2.43903 4.175019 4.87807 6.262282 7.3171 3.101626 3.62415 6.202759 7.24831 9.303893 10.87147 2.94765-3.44375 5.895301-6.88849 8.842955-10.33224 2.12711-2.48488 4.25422-4.97076 6.38133-7.45662.46733-.54622 2.92207-2.65533 2.92207-3.41485 0-.66981-2.16843-2.53372-2.57969-3.01465-2.08775-2.43953-4.17551-4.87856-6.26327-7.31758-3.101129-3.62367-6.202262-7.24732-9.303395-10.87148" fill="#fb0f0c" fill-rule="evenodd" stroke-miterlimit="10" stroke-width=".026808"/><path d="m93.723395 114.75664c-2.612155 3.05252-5.224308 6.10505-7.836954 9.15708-1.836871 2.14698-3.674234 4.29346-5.511596 6.43995-.445198.5203-2.78187 2.52774-2.78187 3.25038 0 .63293 2.046434 2.39119 2.435551 2.8457 1.800467 2.10412 3.600935 4.20725 5.401403 6.31237 2.764652 3.22945 5.529304 6.45989 8.293466 9.69034 2.612153-3.05303 5.224308-6.10506 7.837445-9.15808 1.83589-2.14599 3.67374-4.29297 5.51061-6.43895.44569-.5213 2.78138-2.52774 2.78138-3.25138 0-.63194-2.04643-2.39118-2.43407-2.84521-1.80047-2.10412-3.60192-4.20774-5.40239-6.31187-2.763671-3.22994-5.528324-6.45989-8.292975-9.69033" fill="#fff" fill-rule="evenodd" stroke-miterlimit="10" stroke-width=".026808"/><path d="m81.625334 119.46824h24.091336c.21055 0 .10429 23.12543.10429 25.33122 0 .44654.31484 2.59153 0 2.94039-.35222.38973-3.28413 0-3.78 0-5.36598 0-10.732455 0-16.098439 0-1.403971 0-2.808435 0-4.212406 0-.235635 0-.104781-2.24067-.104781-2.50182 0-5.27277 0-10.54554 0-15.81781 0-3.31716 0-6.63482 0-9.95198" fill="#fff" fill-rule="evenodd" stroke-miterlimit="10" stroke-width=".026808"/><path d="m93.723395 119.46824c-2.016426 2.35631-4.03236 4.7121-6.048785 7.06791-1.386262 1.6197-2.772524 3.23942-4.158785 4.85962-.30057.35135-1.890491 1.71888-1.890491 2.20828 0 .4904 1.589921 1.85792 1.890491 2.20878 1.386261 1.61971 2.772523 3.23941 4.158785 4.85913 2.016425 2.35629 4.032359 4.7116 6.048785 7.06789 2.016917-2.35629 4.031866-4.7116 6.048784-7.06789 1.386261-1.61972 2.772521-3.23942 4.157801-4.85913.30106-.35086 1.89098-1.71838 1.89098-2.20878 0-.4894-1.58992-1.85693-1.89098-2.20828-1.38528-1.6202-2.77154-3.23992-4.157801-4.85962-2.016918-2.35581-4.031867-4.7116-6.048784-7.06791" fill="#fb0f0c" fill-rule="evenodd" stroke-width=".997833"/><path d="m123.96732 105.33294c-1.34396 0-2.68791 0-4.03188 0 1.34397 1.57036 2.68792 3.14123 4.03188 4.7116 0-1.57037 0-3.14124 0-4.7116" fill="#fff" fill-rule="evenodd" stroke-miterlimit="10" stroke-width=".026808"/><path d="m123.96732 112.40034c-1.34396-1.57037-2.68791-3.14123-4.03188-4.7116v4.58003c0 .2766 3.51239.13157 4.03188.13157" fill="#fff" fill-rule="evenodd" stroke-miterlimit="10" stroke-width=".026808"/><path d="m63.479474 105.33294h4.031866c-1.343956 1.57036-2.687911 3.14123-4.031866 4.7116 0-1.57037 0-3.14124 0-4.7116" fill="#fff" fill-rule="evenodd" stroke-miterlimit="10" stroke-width=".026808"/><path d="m63.479474 112.40034c1.343955-1.57037 2.68791-3.14123 4.031866-4.7116v4.58003c0 .2766-3.511896.13157-4.031866.13157" fill="#fff" fill-rule="evenodd" stroke-miterlimit="10" stroke-width=".026808"/><path d="m67.51134 154.80776c-1.343956 0-2.687911 0-4.031867 0 1.343956 1.57087 2.687911 3.14173 4.031867 4.7116 0-1.56987 0-3.14073 0-4.7116" fill="#fff" fill-rule="evenodd" stroke-miterlimit="10" stroke-width=".026808"/><path d="m67.51134 161.87566c-1.343956-1.57086-2.687911-3.14173-4.031867-4.7116v4.58003c0 .2771 3.512388.13157 4.031867.13157" fill="#fff" fill-rule="evenodd" stroke-miterlimit="10" stroke-width=".026808"/><path d="m119.93544 154.80776h4.03188c-1.34396 1.57087-2.68791 3.14173-4.03188 4.7116 0-1.56987 0-3.14073 0-4.7116" fill="#fff" fill-rule="evenodd" stroke-miterlimit="10" stroke-width=".026808"/><path d="m119.93544 161.87566c1.34397-1.57086 2.68792-3.14173 4.03188-4.7116v4.58003c0 .2771-3.51239.13157-4.03188.13157" fill="#fff" fill-rule="evenodd" stroke-miterlimit="10" stroke-width=".026808"/><path d="m67.51134 138.31665c-1.343956 0-2.687911 0-4.031867 0 1.343956 1.57086 2.687911 3.14074 4.031867 4.7116 0-1.57086 0-3.14074 0-4.7116" fill="#fff" fill-rule="evenodd" stroke-miterlimit="10" stroke-width=".026808"/><path d="m67.51134 145.38356c-1.343956-1.56988-2.687911-3.14074-4.031867-4.7116v4.58002c0 .2771 3.512388.13158 4.031867.13158" fill="#fff" fill-rule="evenodd" stroke-miterlimit="10" stroke-width=".026808"/><path d="m63.479474 121.82455h4.031866c-1.343956 1.57036-2.687911 3.14123-4.031866 4.7116 0-1.57037 0-3.14124 0-4.7116" fill="#fff" fill-rule="evenodd" stroke-miterlimit="10" stroke-width=".026808"/><path d="m63.479474 128.89245c1.343955-1.57087 2.68791-3.14124 4.031866-4.71211v4.58004c0 .27659-3.511896.13207-4.031866.13207" fill="#fff" fill-rule="evenodd" stroke-miterlimit="10" stroke-width=".026808"/><path d="m123.96732 121.82455c-1.34396 0-2.68791 0-4.03188 0 1.34397 1.57036 2.68792 3.14123 4.03188 4.7116 0-1.57037 0-3.14124 0-4.7116" fill="#fff" fill-rule="evenodd" stroke-miterlimit="10" stroke-width=".026808"/><path d="m123.96732 128.89245c-1.34396-1.57087-2.68791-3.14124-4.03188-4.71211v4.58004c0 .27659 3.51239.13207 4.03188.13207" fill="#fff" fill-rule="evenodd" stroke-miterlimit="10" stroke-width=".026808"/><path d="m119.93544 138.31665h4.03188c-1.34396 1.57086-2.68791 3.14074-4.03188 4.7116 0-1.57086 0-3.14074 0-4.7116" fill="#fff" fill-rule="evenodd" stroke-miterlimit="10" stroke-width=".026808"/><path d="m119.93544 145.38356c1.34397-1.56988 2.68792-3.14074 4.03188-4.7116v4.58002c0 .2771-3.51239.13158-4.03188.13158" fill="#fff" fill-rule="evenodd" stroke-miterlimit="10" stroke-width=".026808"/><path d="m79.659577 34.948444c-.823984-2.066248-1.695686-4.170871-2.260914-6.329815-.509641-1.945642-.915484-6.69562 1.639606-7.629568 2.451292-.895075 3.342179 3.398395 3.310203 5.085382-.04821 2.534218-1.237206 5.123257-2.132521 7.452646-.182014.474449-.367964.950394-.556374 1.421355" fill="#fb0f0c" fill-rule="evenodd" stroke-width=".997833"/><path d="m79.646787 34.995291c-2.026264-.864176-4.28226-1.710909-6.07584-3.023122-1.591889-1.165191-4.127302-4.618407-2.648065-6.730505 1.493011-2.132032 4.60841.311482 5.614901 1.751776 1.443818 2.064752 2.122191 4.889023 2.880256 7.271736.07723.242707.15299.488404.228748.730114" fill="#fb0f0c" fill-rule="evenodd" stroke-width=".997833"/><path d="m79.653182 34.995291c2.026264-.864674 4.281768-1.710909 6.075841-3.023122 1.591888-1.164693 4.126809-4.618905 2.648065-6.730505-1.493012-2.132531-4.608903.311482-5.615393 1.751776-1.471858 2.105619-2.161054 5.000658-2.930926 7.43271-.05952.188883-.119047.381255-.177587.569141" fill="#fb0f0c" fill-rule="evenodd" stroke-width=".997833"/><path d="m74.461342 35.278365c-1.639606-.492889-3.670297-.329921-4.71811 1.20905-.558343.820319-.685261 3.998931 1.092086 3.380952.309916-.107649.563261-1.501095.941064-1.822047.720188-.612 2.069062-.593061 2.943716-.66383 1.176699-.0942 2.398655.0329 3.555186-.129078.0015-.0069.0034-.01345.0069-.01993-1.096023-.86019-2.493108-1.538971-3.820829-1.955112" fill="#fb0f0c" fill-rule="evenodd" stroke-width=".997833"/><path d="m84.757951 35.278365c1.639606-.493387 3.670297-.329921 4.717619 1.20905.558341.820319.685751 3.99943-1.092087 3.380952-.309916-.107649-.562769-1.500597-.940572-1.822047-.719695-.612-2.069063-.593061-2.943716-.66383-1.177191-.0942-2.398655.0329-3.555678-.129078-.0015-.0069-.0034-.01345-.0069-.01993 1.096515-.86019 2.493108-1.538971 3.821321-1.955112" fill="#fb0f0c" fill-rule="evenodd" stroke-width=".997833"/><path d="m78.265445 39.856405c.23957 2.075717 3.792296 1.066515 2.093167-1.790149-1.193426-2.00744-1.87721-.129079-2.093167 1.790149" fill="#fb0f0c" fill-rule="evenodd" stroke-width=".997833"/><path d="m107.88707 34.948444c-.82447-2.06575-1.69617-4.171369-2.26091-6.329815-.50964-1.945642-.91499-6.695121 1.63911-7.629568 2.45179-.896071 3.34316 3.398893 3.3107 5.085382-.0483 2.534717-1.23672 5.123257-2.13203 7.452646-.183.474449-.36797.949895-.55687 1.421355" fill="#fb0f0c" fill-rule="evenodd" stroke-width=".997833"/><path d="m107.87428 34.995291c-2.02577-.864176-4.28275-1.710909-6.07535-3.023122-1.59188-1.165191-4.127297-4.618905-2.648552-6.730505 1.493502-2.131534 4.608412.310984 5.615882 1.751776 1.44333 2.064752 2.12121 4.889521 2.87878 7.271736.0777.242707.15349.488404.22924.730114" fill="#fb0f0c" fill-rule="evenodd" stroke-width=".997833"/><path d="m107.88117 34.995291c2.02577-.864674 4.28177-1.710909 6.07534-3.023122 1.59288-1.165191 4.12731-4.618407 2.64758-6.730505-1.49252-2.132032-4.6084.311482-5.6149 1.751776-1.47284 2.105619-2.15958 5.000658-2.92994 7.43271-.06.189381-.11905.380756-.17808.569141" fill="#fb0f0c" fill-rule="evenodd" stroke-width=".997833"/><path d="m102.68835 35.278365c-1.63912-.493387-3.66981-.329423-4.716639 1.20905-.558834.820818-.686736 3.99943 1.092087 3.380952.308933-.107649.562769-1.501095.940572-1.822047.7192-.612 2.06906-.593061 2.94372-.66383 1.1767-.0942 2.39865.0329 3.55469-.129078.00098-.0069.004-.01345.007-.01993-1.09701-.86019-2.49212-1.538971-3.82132-1.955112" fill="#fb0f0c" fill-rule="evenodd" stroke-width=".997833"/><path d="m112.98545 35.278365c1.63911-.493387 3.67078-.329423 4.7186 1.20905.55785.820319.68477 3.998931-1.09208 3.380952-.31091-.107649-.56376-1.501095-.94156-1.822047-.71921-.612-2.06906-.593061-2.94372-.66383-1.1767-.09469-2.39866.0329-3.55568-.129078-.00098-.0069-.003-.01345-.007-.01993 1.09702-.859691 2.49312-1.538971 3.82133-1.955112" fill="#fb0f0c" fill-rule="evenodd" stroke-width=".997833"/><path d="m106.49294 39.856405c.24006 2.075717 3.79279 1.066515 2.09366-1.790149-1.19343-2.00794-1.87819-.128581-2.09366 1.790149" fill="#fb0f0c" fill-rule="evenodd" stroke-width=".997833"/><path d="m136.11507 34.948444c-.8235-2.066746-1.69619-4.170871-2.26191-6.329815-.50865-1.945642-.91499-6.69562 1.64108-7.629568 2.4508-.895573 3.3412 3.398893 3.30972 5.085382-.0492 2.534717-1.2377 5.122759-2.13302 7.452646-.18102.474449-.36796.950394-.55587 1.421355" fill="#fb0f0c" fill-rule="evenodd" stroke-width=".997833"/><path d="m136.10227 34.995291c-2.02676-.864674-4.28177-1.710909-6.07633-3.023122-1.59189-1.165191-4.12632-4.618905-2.64757-6.730505 1.49252-2.132032 4.60841.311482 5.61489 1.751776 1.47186 2.105619 2.16056 5.00016 2.92995 7.43271.0609.189381.12003.380756.17906.569141" fill="#fb0f0c" fill-rule="evenodd" stroke-width=".997833"/><path d="m136.10817 34.995291c2.02676-.864176 4.28276-1.710909 6.07634-3.023122 1.59189-1.165191 4.12631-4.618905 2.64856-6.730505-1.49351-2.132032-4.6094.311482-5.61589 1.751776-1.47186 2.105619-2.16056 5.000658-2.92995 7.43271-.06.188883-.12003.381255-.17906.569141" fill="#fb0f0c" fill-rule="evenodd" stroke-width=".997833"/><path d="m130.91732 35.278365c-1.6401-.493387-3.67079-.329423-4.71861 1.20905-.55883.820818-.68574 3.998931 1.0921 3.380952.30991-.107649.56276-1.501095.94056-1.822047.72019-.612 2.07005-.593061 2.94371-.66383 1.17769-.0942 2.39866.0329 3.55569-.129078.002-.0069.004-.01345.007-.01993-1.09701-.86019-2.49213-1.538971-3.82034-1.955112" fill="#fb0f0c" fill-rule="evenodd" stroke-width=".997833"/><path d="m141.21246 35.278365c1.64107-.492889 3.67177-.329921 4.71859 1.20905.55884.820319.68674 3.998433-1.09209 3.380952-.30893-.107649-.56276-1.500597-.94057-1.822047-.72018-.612-2.06906-.593061-2.94371-.66383-1.1767-.0942-2.39865.0329-3.55568-.129078-.002-.0069-.004-.01345-.006-.01993 1.09602-.86019 2.49212-1.538971 3.81935-1.955112" fill="#fb0f0c" fill-rule="evenodd" stroke-width=".997833"/><path d="m134.72093 39.856405c.24006 2.076714 3.79181 1.065518 2.09366-1.790149-1.19442-2.00794-1.87721-.128581-2.09366 1.790149" fill="#fb0f0c" fill-rule="evenodd" stroke-width=".997833"/><path d="m51.432082 34.948444c-.824477-2.06575-1.696179-4.171369-2.261407-6.329815-.509641-1.945642-.914992-6.69562 1.639606-7.629568 2.451784-.896071 3.342179 3.398893 3.310204 5.085382-.04821 2.534717-1.237207 5.122759-2.132522 7.452646-.182014.474449-.367964.949895-.555881 1.421355" fill="#fb0f0c" fill-rule="evenodd" stroke-width=".997833"/><path d="m51.418799 34.995291c-2.026756-.864674-4.281768-1.710909-6.07584-3.023122-1.591889-1.165191-4.12681-4.618407-2.648065-6.730505 1.493011-2.132032 4.608902.311482 5.615393 1.751776 1.443326 2.064752 2.12219 4.889521 2.879764 7.271736.07723.242707.152991.488404.228748.730114" fill="#fb0f0c" fill-rule="evenodd" stroke-width=".997833"/><path d="m51.425195 34.995291c2.026263-.864176 4.282259-1.710909 6.07584-3.023122 1.591889-1.165191 4.127301-4.618407 2.648064-6.730505-1.493502-2.132032-4.608409.311482-5.615392 1.751776-1.443326 2.064752-2.121699 4.889521-2.879764 7.271736-.07723.242707-.152991.487906-.228748.730114" fill="#fb0f0c" fill-rule="evenodd" stroke-width=".997833"/><path d="m46.233354 35.278365c-1.639606-.493387-3.670297-.329423-4.717619 1.20905-.558341.820319-.685752 3.99943 1.092088 3.380952.309424-.107649.562768-1.501095.940571-1.822047.719696-.612 2.069062-.593061 2.943716-.66383 1.177191-.0942 2.399148.0329 3.555677-.129078.000985-.0069.0034-.01345.0069-.01993-1.096514-.859691-2.493106-1.539469-3.821321-1.955112" fill="#fb0f0c" fill-rule="evenodd" stroke-width=".997833"/><path d="m56.529471 35.278365c1.640099-.492889 3.67079-.329921 4.718603 1.20905.558342.820319.685752 3.998931-1.092087 3.380952-.309917-.107649-.563262-1.501095-.941065-1.822047-.719694-.612-2.069061-.593061-2.943715-.66383-1.176698-.0942-2.398655.0329-3.555185-.129078-.0015-.0069-.0039-.01345-.0069-.01993 1.096514-.86019 2.492615-1.538473 3.820336-1.955112" fill="#fb0f0c" fill-rule="evenodd" stroke-width=".997833"/><path d="m50.037457 39.856405c.240063 2.075717 3.792296 1.066515 2.093658-1.790149-1.193424-2.00744-1.8777-.128581-2.093658 1.790149" fill="#fb0f0c" fill-rule="evenodd" stroke-width=".997833"/><path d="m79.407709 231.08251c-.823985 2.06624-1.696179 4.17136-2.261408 6.32931-.509148 1.94464-.915483 6.69711 1.640099 7.63006 2.451785.89508 3.341687-3.39889 3.309712-5.08538-.04821-2.53571-1.237698-5.12325-2.132029-7.45264-.182507-.47445-.367965-.9499-.556374-1.42135" fill="#fb0f0c" fill-rule="evenodd" stroke-width=".997833"/><path d="m79.394426 231.03566c-2.026755.86318-4.281768 1.71041-6.075348 3.02312-1.59238 1.16519-4.127302 4.6179-2.648557 6.73 1.493503 2.13204 4.608902-.31098 5.615393-1.75127 1.443818-2.06526 2.121699-4.89003 2.879765-7.27224.07723-.2422.15299-.48841.228747-.72961" fill="#fb0f0c" fill-rule="evenodd" stroke-width=".997833"/><path d="m79.401313 231.03566c2.026756.86318 4.281768 1.71041 6.075349 3.02312 1.592381 1.16519 4.126809 4.6179 2.648065 6.73-1.493011 2.13204-4.60841-.31098-5.615393-1.75127-1.471858-2.10612-2.160561-5.00066-2.929942-7.43272-.06001-.18937-.119047-.38075-.178079-.56913" fill="#fb0f0c" fill-rule="evenodd" stroke-width=".997833"/><path d="m74.208981 230.75258c-1.639606.49239-3.670298.32893-4.717618-1.21004-.558343-.81933-.685752-3.99893 1.092086-3.38095.309425.10764.563261 1.50109.940573 1.82204.720187.612 2.069062.59405 2.944207.66383 1.176699.0947 2.39964-.0318 3.555186.12958.000983.008.0034.014.0069.0199-1.096023.86019-2.493107 1.53897-3.821321 1.95561" fill="#fb0f0c" fill-rule="evenodd" stroke-width=".997833"/><path d="m84.505591 230.75258c1.639605.49239 3.670788.32893 4.71811-1.21004.558341-.81933.685752-3.99794-1.092087-3.38095-.309424.10764-.563261 1.50109-.941064 1.82204-.720187.612-2.06857.59405-2.943715.66383-1.1767.0947-2.39964-.0318-3.555186.12958-.0015.007-.0039.014-.0069.0199 1.095531.86019 2.493107 1.53897 3.820829 1.95561" fill="#fb0f0c" fill-rule="evenodd" stroke-width=".997833"/><path d="m78.013084 226.17454c.239571-2.07622 3.792297-1.06751 2.093659 1.78915-1.193425 2.00844-1.876225.13058-2.093659-1.78915" fill="#fb0f0c" fill-rule="evenodd" stroke-width=".997833"/><path d="m107.6352 231.08251c-.82447 2.06624-1.69617 4.17136-2.26091 6.32931-.50964 1.94464-.91499 6.69611 1.63911 7.63006 2.45179.89508 3.34316-3.39889 3.3107-5.08538-.0482-2.53372-1.23671-5.12524-2.13203-7.45264-.183-.47445-.36796-.9499-.55687-1.42135" fill="#fb0f0c" fill-rule="evenodd" stroke-width=".997833"/><path d="m107.62241 231.03566c-2.02675.86318-4.28275 1.71041-6.07534 3.02312-1.591893 1.16519-4.127306 4.6179-2.64856 6.73 1.4935 2.13204 4.60841-.31098 5.61588-1.75127 1.47186-2.10612 2.15958-5.00066 2.92994-7.43272.059-.18838.11905-.38175.17808-.56913" fill="#fb0f0c" fill-rule="evenodd" stroke-width=".997833"/><path d="m107.6293 231.03566c2.02676.86318 4.28177 1.71041 6.07535 3.02312 1.59287 1.16519 4.1273 4.6179 2.64757 6.73-1.4935 2.13204-4.6084-.31098-5.6149-1.75127-1.47186-2.10612-2.16056-5.00066-2.93092-7.43272-.059-.18838-.11807-.38175-.1771-.56913" fill="#fb0f0c" fill-rule="evenodd" stroke-width=".997833"/><path d="m102.43648 230.75258c-1.63912.49239-3.669809.32893-4.717622-1.21004-.55785-.81933-.685752-3.99893 1.092087-3.38095.309917.10764.563754 1.50109.941557 1.82204.720188.612 2.068078.59405 2.943718.66383 1.17571.0947 2.39964-.0318 3.55469.12958.00098.007.004.014.007.0199-1.09602.86019-2.4931 1.53897-3.82132 1.95561" fill="#fb0f0c" fill-rule="evenodd" stroke-width=".997833"/><path d="m112.73358 230.75258c1.63911.49239 3.66981.32893 4.7186-1.21004.55687-.81933.68477-3.99794-1.09208-3.38095-.31091.10764-.56376 1.50109-.94156 1.82204-.72019.612-2.06906.59405-2.94471.66383-1.17571.0947-2.39865-.0318-3.55469.12958-.00098.008-.003.014-.007.0199 1.09602.86019 2.49312 1.53897 3.82133 1.95561" fill="#fb0f0c" fill-rule="evenodd" stroke-width=".997833"/><path d="m106.24009 226.17454c.24104-2.07622 3.79279-1.06751 2.09464 1.78915-1.19342 2.00844-1.87622.13058-2.09464-1.78915" fill="#fb0f0c" fill-rule="evenodd" stroke-width=".997833"/><path d="m135.8632 231.08251c-.82448 2.06624-1.69619 4.17136-2.2619 6.32931-.50866 1.94464-.915 6.69711 1.64107 7.63006 2.45179.89508 3.3412-3.39889 3.30972-5.08538-.0483-2.53372-1.23573-5.12524-2.13302-7.45264-.18201-.47445-.36796-.9499-.55587-1.42135" fill="#fb0f0c" fill-rule="evenodd" stroke-width=".997833"/><path d="m135.8504 231.03566c-2.02675.86318-4.28275 1.71041-6.07633 3.02312-1.59189 1.16519-4.12631 4.6179-2.64856 6.73 1.49351 2.13204 4.6094-.31098 5.61589-1.75127 1.44431-2.06526 2.12219-4.89003 2.88075-7.27224.0768-.2422.15151-.48841.22825-.72961" fill="#fb0f0c" fill-rule="evenodd" stroke-width=".997833"/><path d="m135.85631 231.03566c2.02675.86318 4.28275 1.71041 6.07633 3.02312 1.59189 1.16519 4.12631 4.6179 2.64757 6.73-1.49252 2.13204-4.60841-.31098-5.6149-1.75127-1.44431-2.06526-2.12121-4.89003-2.88075-7.27224-.0768-.2422-.1525-.48841-.22825-.72961" fill="#fb0f0c" fill-rule="evenodd" stroke-width=".997833"/><path d="m130.66447 230.75258c-1.6401.49239-3.6708.32893-4.71763-1.21004-.55883-.81933-.68673-3.99794 1.0921-3.38095.30893.10764.56276 1.50109.94057 1.82204.72018.612 2.06906.59405 2.94371.66383 1.1767.0947 2.40063-.0318 3.55568.12958.00098.008.004.014.007.0199-1.09701.86019-2.49213 1.53897-3.82132 1.95561" fill="#fb0f0c" fill-rule="evenodd" stroke-width=".997833"/><path d="m140.96059 230.75258c1.64009.49239 3.67177.32893 4.7186-1.21004.55883-.81933.68574-3.99794-1.0921-3.38095-.30893.10764-.56276 1.50109-.94057 1.82204-.72018.612-2.06807.59405-2.94371.66383-1.1767.0947-2.39964-.0318-3.55568.12958-.002.008-.004.014-.007.0199 1.09505.86019 2.49311 1.53897 3.82035 1.95561" fill="#fb0f0c" fill-rule="evenodd" stroke-width=".997833"/><path d="m134.46906 226.17454c.23908-2.07622 3.79181-1.06751 2.09366 1.78915-1.19441 2.00844-1.87721.13058-2.09366-1.78915" fill="#fb0f0c" fill-rule="evenodd" stroke-width=".997833"/><path d="m51.180213 231.08251c-.824969 2.06524-1.69667 4.17136-2.2619 6.32931-.509148 1.94464-.914991 6.69711 1.640099 7.63006 2.451293.89508 3.342671-3.39889 3.310204-5.08538-.04821-2.53571-1.237699-5.12325-2.132522-7.45264-.182014-.47445-.367964-.9499-.555881-1.42135" fill="#fb0f0c" fill-rule="evenodd" stroke-width=".997833"/><path d="m51.166931 231.03566c-2.027248.86318-4.28226 1.71041-6.075841 3.02312-1.592381 1.16519-4.126809 4.6179-2.648557 6.73 1.493503 2.13204 4.608902-.31197 5.615886-1.75127 1.443325-2.06526 2.121206-4.89003 2.879763-7.27224.07723-.24121.152992-.48841.228749-.72961" fill="#fb0f0c" fill-rule="evenodd" stroke-width=".997833"/><path d="m51.173326 231.03566c2.026755.86318 4.281768 1.7114 6.075348 3.02312 1.592382 1.1642 4.127302 4.6179 2.648557 6.73-1.493503 2.13204-4.60841-.31098-5.615393-1.75127-1.471858-2.10612-2.160561-5.00066-2.930434-7.43272-.06001-.18838-.119047-.38175-.178078-.56913" fill="#fb0f0c" fill-rule="evenodd" stroke-width=".997833"/><path d="m45.981485 230.75258c-1.640097.49239-3.670789.32893-4.71811-1.21004-.558342-.81933-.685752-3.99893 1.092086-3.38095.309425.10764.563754 1.50109.941064 1.82204.720188.612 2.068571.59405 2.943716.66383 1.176699.0947 2.39964-.0318 3.555186.12958.0015.008.0039.014.0069.0199-1.096023.86019-2.492615 1.53897-3.820829 1.95561" fill="#fb0f0c" fill-rule="evenodd" stroke-width=".997833"/><path d="m56.277602 230.75258c1.640099.49239 3.67079.32993 4.718603-1.21004.55785-.81933.685261-3.99893-1.092579-3.38095-.309425.10764-.563261 1.50109-.940572 1.82204-.720187.612-2.06857.59405-2.943716.66383-1.176698.0947-2.399639-.0318-3.555677.12958-.000984.008-.0034.014-.0069.0199 1.096021.86019 2.493106 1.53897 3.820828 1.95561" fill="#fb0f0c" fill-rule="evenodd" stroke-width=".997833"/><path d="m49.785096 226.17454c.240554-2.07622 3.791805-1.06751 2.094151 1.78915-1.193917 2.00944-1.875733.13058-2.094151-1.78915" fill="#fb0f0c" fill-rule="evenodd" stroke-width=".997833"/><path d="m157.04771 232.48492c1.9205 1.0416 3.99743 2.3244 6.12258 2.88058 1.93427.50635 5.5962.018 5.94842-2.57159.34042-2.49883-3.14933-3.62117-5.03147-3.39989-2.34749.2761-4.80911 1.87687-6.86539 2.99222-.057.0309-.11707.0668-.17414.0987" fill="#fb0f0c" fill-rule="evenodd" stroke-width=".997833"/><path d="m157.01131 232.49987c.82644 2.65233 3.39039 12.77924 8.00667 10.38606 2.2491-1.16519.43979-5.02259-.7379-6.3343-1.66174-1.84796-4.41754-2.81879-6.645-3.78364-.20661-.0907-.41716-.17941-.62377-.26812" fill="#fb0f0c" fill-rule="evenodd" stroke-width=".997833"/><path d="m157.00737 232.49189c.82842-2.65432 3.39236-12.78521 8.01061-10.38606 2.24714 1.1672.44077 5.01263-.7379 6.32634-1.66272 1.84995-4.41852 2.82476-6.64697 3.79359-.20858.0897-.41912.17743-.62574.26613" fill="#fb0f0c" fill-rule="evenodd" stroke-width=".997833"/><path d="m156.76535 238.55907c.37386 1.70643.45159 4.26606-1.03503 5.51199-.96714.81134-3.4691.54422-2.89354-1.27583.10725-.3369 1.27016-.68975 1.55942-1.1024.59819-.85521.51162-2.45199.56769-3.43676.0778-1.37551-.0462-2.79388.11118-4.15444.006-.002.0118-.004.0167-.008.77627 1.33763 1.33314 2.95036 1.67356 4.46541" fill="#fb0f0c" fill-rule="evenodd" stroke-width=".997833"/><path d="m156.76535 226.52738c.37485-1.7084.45454-4.26705-1.03503-5.51297-.96714-.80936-3.47205-.54622-2.89354 1.27583.10626.3349 1.27214.68775 1.55942 1.1004.59819.85421.51162 2.45398.56769 3.43876.0778 1.37651-.0462 2.79387.11118 4.15443.006.002.0118.005.0167.008.77431-1.33565 1.33707-2.95037 1.67356-4.46442" fill="#fb0f0c" fill-rule="evenodd" stroke-width=".997833"/><path d="m152.8476 234.1136c-1.84178-.45053-1.05469-4.48535 1.53188-2.44601 1.55549 1.226.38272 2.11509-1.53188 2.44601" fill="#fb0f0c" fill-rule="evenodd" stroke-width=".997833"/><path d="m157.05066 199.50071c1.9205 1.04358 3.99842 2.32441 6.12356 2.88258 1.93034.50634 5.59719.018 5.94449-2.5726.33452-2.49684-3.14836-3.62016-5.03147-3.39988-2.34552.27311-4.80911 1.87587-6.86145 2.99222-.058.0309-.11806.0667-.17513.0977" fill="#fb0f0c" fill-rule="evenodd" stroke-width=".997833"/><path d="m157.00737 199.51666c.83038 2.65333 3.39236 12.78023 8.01061 10.38606 2.24813-1.16619.44077-5.0196-.7379-6.33032-1.66469-1.84895-4.41951-2.82078-6.64697-3.78861-.20858-.0907-.41912-.17943-.62574-.26713" fill="#fb0f0c" fill-rule="evenodd" stroke-width=".997833"/><path d="m157.01131 199.50868c.82644-2.65532 3.38842-12.78023 8.00667-10.38606 2.2491 1.16619.44077 5.01861-.7379 6.32932-1.66272 1.84996-4.41754 2.82177-6.645 3.78962-.20661.0897-.41716.17841-.62377.26712" fill="#fb0f0c" fill-rule="evenodd" stroke-width=".997833"/><path d="m156.76535 205.57087c.37485 1.7124.45454 4.26308-1.03503 5.51299-.96517.81035-3.47303.55518-2.89354-1.27185.10626-.33391 1.27214-.68775 1.55942-1.09941.59819-.8552.51162-2.45397.56769-3.43975.0778-1.37651-.0462-2.79388.11118-4.15443.006-.002.0118-.005.0167-.008.77431 1.33364 1.33608 2.94738 1.67356 4.46043" fill="#fb0f0c" fill-rule="evenodd" stroke-width=".997833"/><path d="m156.76535 193.54417c.37386-1.70642.45159-4.26605-1.03503-5.51298-.96615-.81035-3.475-.54522-2.89354 1.27583.10725.33391 1.27115.68676 1.55942 1.09941.59819.8562.51162 2.45398.56769 3.43975.0778 1.37651-.0462 2.79388.11118 4.15443.006.002.0118.005.0167.008.77627-1.33663 1.33314-2.95036 1.67356-4.46442" fill="#fb0f0c" fill-rule="evenodd" stroke-width=".997833"/><path d="m152.8476 201.13038c-1.84178-.44953-1.05273-4.49032 1.53188-2.45099 1.55745 1.22998.38272 2.11908-1.53188 2.45099" fill="#fb0f0c" fill-rule="evenodd" stroke-width=".997833"/><path d="m157.04771 166.5165c1.91854 1.04558 4.00137 2.32739 6.12651 2.88257 1.93428.50635 5.59227.018 5.94449-2.57159.33944-2.49784-3.14836-3.62515-5.03147-3.40487-2.34847.27609-4.8101 1.88085-6.86539 2.9962-.057.0318-.11609.0667-.17414.0977" fill="#fb0f0c" fill-rule="evenodd" stroke-width=".997833"/><path d="m157.00737 166.53244c.83038 2.65532 3.39236 12.78123 8.01061 10.38606 2.24813-1.16519.44077-5.0186-.7379-6.32931-1.66469-1.84996-4.41951-2.82178-6.64697-3.78962-.20858-.0897-.41912-.17841-.62574-.26713" fill="#fb0f0c" fill-rule="evenodd" stroke-width=".997833"/><path d="m157.00737 166.52447c.83038-2.65333 3.39236-12.78024 8.01061-10.38606 2.24813 1.16619.44077 5.0196-.7379 6.33032-1.66469 1.84895-4.41951 2.82177-6.64697 3.78861-.20858.0907-.41912.17942-.62574.26713" fill="#fb0f0c" fill-rule="evenodd" stroke-width=".997833"/><path d="m156.76535 172.59164c.37386 1.70743.45159 4.26606-1.03503 5.51299-.96714.81134-3.47205.54521-2.89354-1.27583.10626-.3349 1.27214-.68776 1.55942-1.1004.59819-.85521.51162-2.45399.56769-3.43877.0778-1.36952-.0659-2.81679.12102-4.15841.79102 1.30175 1.34296 2.95933 1.68044 4.46042" fill="#fb0f0c" fill-rule="evenodd" stroke-width=".997833"/><path d="m156.76535 160.55996c.37386-1.70643.45159-4.26606-1.03503-5.51198-.96714-.81235-3.47205-.54622-2.89354 1.27583.10626.3349 1.27214.68775 1.55942 1.09941.59819.8552.51162 2.45397.56769 3.43975.0778 1.36953-.0659 2.8168.12102 4.15841.79102-1.30175 1.34296-2.96033 1.68044-4.46142" fill="#fb0f0c" fill-rule="evenodd" stroke-width=".997833"/><path d="m152.8476 168.14717c-1.84277-.44954-1.05273-4.48236 1.53188-2.45099 1.55942 1.22698.37879 2.11508-1.53188 2.45099" fill="#fb0f0c" fill-rule="evenodd" stroke-width=".997833"/><path d="m157.04771 100.55007c1.91951 1.04309 3.99941 2.32689 6.12258 2.88208 1.93427.50585 5.5962.0174 5.94842-2.5721.34042-2.498831-3.14933-3.621661-5.03147-3.400384-2.34847.276596-4.80911 1.877364-6.86539 2.992224-.057.0319-.11707.0668-.17414.0982" fill="#fb0f0c" fill-rule="evenodd" stroke-width=".997833"/><path d="m157.01131 100.56601c.82644 2.65333 3.39039 12.77874 8.00667 10.38557 2.2491-1.16569.43979-5.02259-.7379-6.33381-1.66076-1.84746-4.41754-2.81928-6.645-3.78463-.20661-.0902-.41716-.17941-.62377-.26713" fill="#fb0f0c" fill-rule="evenodd" stroke-width=".997833"/><path d="m157.00737 100.55804c.82842-2.654824 3.39334-12.785717 8.01061-10.386059 2.24714 1.167186.44077 5.013117-.7379 6.325828-1.66272 1.850452-4.41951 2.824269-6.64697 3.793101-.20858.0902-.41912.17842-.62574.26713" fill="#fb0f0c" fill-rule="evenodd" stroke-width=".997833"/><path d="m156.76535 106.62422c.37386 1.70692.45159 4.26705-1.03503 5.51348-1.02519.86069-3.43762.49987-2.86992-1.32318.0856-.2731 1.33116-.76599 1.59975-1.19011.56179-.88909.4634-2.49185.51456-3.49458.065-1.30174-.0816-2.70316.11708-3.97002.77627 1.33713 1.33313 2.95035 1.67356 4.46441" fill="#fb0f0c" fill-rule="evenodd" stroke-width=".997833"/><path d="m156.76535 94.593531c.37485-1.708417.45454-4.266058-1.03503-5.512984-.96615-.809853-3.47303-.546714-2.89354 1.275831.10626.334906 1.27214.687752 1.55942 1.099906.59819.854706.51162 2.454479.56769 3.439261.0778 1.376501-.0462 2.793869.11118 4.154423.006.002.0118.0045.0167.008.77528-1.335635 1.33707-2.950358 1.67356-4.464411" fill="#fb0f0c" fill-rule="evenodd" stroke-width=".997833"/><path d="m152.8476 102.17974c-1.84178-.45053-1.05469-4.484844 1.53188-2.446504 1.55549 1.226494.38272 2.114594-1.53188 2.446504" fill="#fb0f0c" fill-rule="evenodd" stroke-width=".997833"/><path d="m157.05066 67.566851c1.9205 1.044088 3.99842 2.323407 6.12356 2.882081 1.93133.507343 5.59719.01794 5.94449-2.572094.33452-2.497838-3.14836-3.62017-5.03147-3.400388-2.34552.273606-4.80911 1.877365-6.86145 2.991723-.058.0319-.11806.06728-.17513.09868" fill="#fb0f0c" fill-rule="evenodd" stroke-width=".997833"/><path d="m157.00737 67.582301c.83038 2.654325 3.39236 12.780734 8.01061 10.386059 2.24813-1.165192.44077-5.019098-.7379-6.329814-1.66469-1.849457-4.41951-2.820783-6.64697-3.789119-.20858-.09021-.41912-.178915-.62574-.267126" fill="#fb0f0c" fill-rule="evenodd" stroke-width=".997833"/><path d="m157.01131 67.574327c.82644-2.654825 3.38842-12.780236 8.00667-10.385562 2.2491 1.165193.43979 5.0186-.7379 6.329317-1.66272 1.849456-4.41656 2.821778-6.645 3.789616-.20661.08971-.41716.178417-.62377.266629" fill="#fb0f0c" fill-rule="evenodd" stroke-width=".997833"/><path d="m156.76535 73.637015c.37485 1.712404.45454 4.263567-1.03503 5.512984-.96517.810352-3.47402.555186-2.89354-1.271844.10626-.334905 1.27214-.687752 1.55942-1.099906.59819-.854706.51162-2.454479.56769-3.439261.0778-1.376501-.0462-2.793869.11118-4.154423.006-.002.0118-.0045.0167-.008.77431 1.33414 1.33608 2.947867 1.67356 4.460424" fill="#fb0f0c" fill-rule="evenodd" stroke-width=".997833"/><path d="m156.76535 61.609818c.37485-1.706922.45159-4.266059-1.03503-5.512486-.96615-.810352-3.4691-.549206-2.89354 1.271844.10725.337896 1.27016.689247 1.55942 1.103394.59819.856202.51162 2.453981.56769 3.439759.0778 1.376502-.0462 2.793871.11118 4.154424.006.002.0118.0045.0167.008.77627-1.336632 1.33314-2.950359 1.67356-4.46491" fill="#fb0f0c" fill-rule="evenodd" stroke-width=".997833"/><path d="m152.8476 69.196027c-1.84178-.448035-1.05371-4.489827 1.53188-2.449993 1.55745 1.228983.38272 2.118576-1.53188 2.449993" fill="#fb0f0c" fill-rule="evenodd" stroke-width=".997833"/><path d="m157.04771 34.583138c1.91755 1.045583 4.00137 2.326895 6.12651 2.882081 1.93428.505847 5.59227.01694 5.94449-2.571596.33944-2.498336-3.14836-3.625652-5.03147-3.404873-2.34847.275599-4.8101 1.880853-6.86539 2.996208-.057.0319-.11609.06678-.17414.09818" fill="#fb0f0c" fill-rule="evenodd" stroke-width=".997833"/><path d="m157.00737 34.598587c.83038 2.654327 3.39236 12.781233 8.01061 10.38606 2.24813-1.165193.44077-5.019099-.7379-6.329815-1.66469-1.849456-4.41951-2.820782-6.64697-3.789118-.20858-.08971-.41912-.178417-.62574-.267127" fill="#fb0f0c" fill-rule="evenodd" stroke-width=".997833"/><path d="m157.00737 34.591111c.83038-2.654325 3.39236-12.780733 8.01061-10.386059 2.24813 1.165192.44077 5.019098-.7379 6.329814-1.66469 1.849457-4.41951 2.820783-6.64697 3.789119-.20858.09021-.41912.178915-.62574.267126" fill="#fb0f0c" fill-rule="evenodd" stroke-width=".997833"/><path d="m156.76535 40.657786c.37386 1.706424.45159 4.26606-1.03503 5.512984-.96714.811349-3.47205.545219-2.89354-1.276328.10626-.334408 1.27214-.687753 1.55942-1.099407.59819-.855206.51162-2.45448.56769-3.43976.0778-1.369524-.0659-2.817293.12102-4.157912.79102 1.300749 1.34296 2.959827 1.68044 4.460423" fill="#fb0f0c" fill-rule="evenodd" stroke-width=".997833"/><path d="m156.76535 28.626602c.37386-1.706921.45159-4.266058-1.03503-5.512984-.96714-.811349-3.47205-.545716-2.89354 1.27633.10626.334407 1.27214.687253 1.55942 1.099407.59819.855206.51162 2.453981.56769 3.439759.0778 1.369525-.0659 2.816795.12102 4.157913.79102-1.301746 1.34296-2.959828 1.68044-4.460425" fill="#fb0f0c" fill-rule="evenodd" stroke-width=".997833"/><path d="m152.8476 36.212812c-1.84277-.449033-1.05273-4.481854 1.53188-2.450492 1.55942 1.225994.37879 2.115088-1.53188 2.450492" fill="#fb0f0c" fill-rule="evenodd" stroke-width=".997833"/><path d="m157.04771 133.53329c1.91755 1.04557 4.00137 2.32739 6.12651 2.88258 1.93428.50534 5.59227.0169 5.94449-2.5726.33944-2.49883-3.14836-3.62116-5.03147-3.39989-2.34847.2766-4.80911 1.87687-6.86539 2.99222-.057.0309-.11609.0668-.17414.0977" fill="#fb0f0c" fill-rule="evenodd" stroke-width=".997833"/><path d="m157.00737 133.54923c.83038 2.65433 3.39236 12.78123 8.01061 10.38606 2.24813-1.16519.44077-5.0186-.7379-6.33032-1.66469-1.84895-4.41951-2.82078-6.64697-3.78861-.20858-.0907-.41912-.17842-.62574-.26713" fill="#fb0f0c" fill-rule="evenodd" stroke-width=".997833"/><path d="m157.00737 133.54126c.83038-2.65383 3.39236-12.78074 8.01061-10.38556 2.24813 1.16519.44077 5.0186-.7379 6.32931-1.66469 1.84946-4.41951 2.82178-6.64697 3.79012-.20858.0897-.41912.17741-.62574.26613" fill="#fb0f0c" fill-rule="evenodd" stroke-width=".997833"/><path d="m156.76535 139.60842c.37386 1.70643.45159 4.26607-1.03503 5.512-.96812.81334-3.4691.54621-2.89354-1.27583.10626-.33491 1.27115-.69175 1.55942-1.1024.59819-.8562.51162-2.45498.56769-3.44076.0778-1.37451-.0462-2.79088.11118-4.15043.006-.002.0118-.004.0167-.008.77627 1.33763 1.33314 2.95037 1.67356 4.46541" fill="#fb0f0c" fill-rule="evenodd" stroke-width=".997833"/><path d="m156.76535 127.57675c.37386-1.70792.45257-4.26506-1.03503-5.51299-.96714-.81135-3.47205-.54572-2.89354 1.27633.10626.33441 1.27214.68826 1.55942 1.09991.59819.85521.51162 2.45397.56769 3.43926.0778 1.36952-.0659 2.81679.12102 4.1584.78905-1.30273 1.34296-2.95982 1.68044-4.46091" fill="#fb0f0c" fill-rule="evenodd" stroke-width=".997833"/><path d="m152.8476 135.15897c-1.83786-.43757-1.05568-4.48634 1.53188-2.44202 1.55155 1.22599.37879 2.11708-1.53188 2.44202" fill="#fb0f0c" fill-rule="evenodd" stroke-width=".997833"/><path d="m30.399078 232.48492c-1.920007 1.0416-3.997924 2.3244-6.122575 2.88058-1.934273.50635-5.595715.018-5.947938-2.57159-.340416-2.49883 3.148359-3.62117 5.030487-3.39989 2.348479.2761 4.810102 1.87687 6.86539 2.99222.05805.0309.118063.0668.174636.0987" fill="#fb0f0c" fill-rule="evenodd" stroke-width=".997833"/><path d="m30.435973 232.49987c-.826445 2.65233-3.390882 12.77825-8.007655 10.38606-2.248616-1.16519-.439294-5.02259.738881-6.3343 1.661743-1.84796 4.417049-2.81879 6.64402-3.78364.207596-.0907.417158-.17941.624754-.26812" fill="#fb0f0c" fill-rule="evenodd" stroke-width=".997833"/><path d="m30.439416 232.49189c-.827921-2.65532-3.392849-12.78422-8.011098-10.38606-2.246649 1.1672-.44077 5.01263.738881 6.32634 1.663219 1.84895 4.41754 2.82476 6.646972 3.79359.207104.0897.418142.17743.625245.26613" fill="#fb0f0c" fill-rule="evenodd" stroke-width=".997833"/><path d="m30.681446 238.55907c-.37436 1.70643-.451593 4.26606 1.035023 5.51199.967628.81134 3.46959.54422 2.893047-1.27583-.10675-.3369-1.269675-.68875-1.55893-1.1024-.598188-.85521-.5121-2.45199-.56818-3.43676-.07773-1.37551.04674-2.79388-.110685-4.15444-.0059-.002-.01181-.004-.01722-.008-.774792 1.33763-1.33215 2.95036-1.673058 4.46541" fill="#fb0f0c" fill-rule="evenodd" stroke-width=".997833"/><path d="m30.681446 226.52738c-.375836-1.7084-.454053-4.26705 1.035023-5.51297.967628-.80936 3.472049-.54622 2.893047 1.27583-.106258.3349-1.270659.68775-1.55893 1.1004-.598188.85421-.5121 2.45398-.56818 3.43876-.07773 1.37551.04674 2.79486-.110685 4.15443-.0059.002-.01181.005-.01722.008-.7743-1.33565-1.336578-2.95037-1.673058-4.46442" fill="#fb0f0c" fill-rule="evenodd" stroke-width=".997833"/><path d="m34.599677 234.1136c1.842281-.45153 1.053224-4.48434-1.532366-2.44601-1.555978 1.226-.382722 2.11509 1.532366 2.44601" fill="#fb0f0c" fill-rule="evenodd" stroke-width=".997833"/><path d="m30.395634 199.50071c-1.921483 1.04358-3.99694 2.32441-6.122574 2.88258-1.931813.50634-5.597192.018-5.944495-2.5726-.335005-2.49684 3.147867-3.62016 5.030487-3.39988 2.346511.27311 4.809611 1.87687 6.861947 2.99222.05854.0309.117571.0667.174635.0977" fill="#fb0f0c" fill-rule="evenodd" stroke-width=".997833"/><path d="m30.439416 199.51666c-.83038 2.65432-3.391865 12.78023-8.011098 10.38606-2.24714-1.16519-.44077-5.0196.738881-6.33032 1.664202-1.84895 4.418033-2.82078 6.646972-3.78861.207104-.0907.418142-.17943.625245-.26713" fill="#fb0f0c" fill-rule="evenodd" stroke-width=".997833"/><path d="m30.435973 199.50868c-.827428-2.65532-3.388914-12.78023-8.007655-10.38606-2.247633 1.1652-.439786 5.01761.738881 6.32932 1.662235 1.84896 4.416065 2.82277 6.64402 3.78962.207104.0897.41765.17841.624754.26712" fill="#fb0f0c" fill-rule="evenodd" stroke-width=".997833"/><path d="m30.681446 205.57087c-.375344 1.7124-.454053 4.26407 1.035023 5.51299.965661.81035 3.473525.55518 2.893047-1.27185-.106258-.3349-1.270659-.68775-1.55893-1.09941-.598188-.8552-.5121-2.45397-.56818-3.43975-.07773-1.37651.04674-2.79388-.110685-4.15443-.0059-.002-.01181-.005-.01722-.008-.773317 1.33464-1.335593 2.94738-1.673058 4.46043" fill="#fb0f0c" fill-rule="evenodd" stroke-width=".997833"/><path d="m30.681446 193.54417c-.37436-1.70742-.451593-4.26605 1.035023-5.51298.966645-.81035 3.475001-.54522 2.893047 1.27583-.10675.33391-1.270659.68676-1.55893 1.09941-.598681.8562-.5121 2.45398-.56818 3.43975-.07773 1.37651.04674 2.79388-.110685 4.15443-.0059.002-.01181.005-.01722.008-.774792-1.33763-1.33215-2.94936-1.673058-4.46442" fill="#fb0f0c" fill-rule="evenodd" stroke-width=".997833"/><path d="m34.599677 201.13038c1.842774-.44953 1.051748-4.49032-1.532366-2.45099-1.557946 1.22998-.38223 2.11908 1.532366 2.45099" fill="#fb0f0c" fill-rule="evenodd" stroke-width=".997833"/><path d="m30.399078 166.5165c-1.91804 1.04558-4.001859 2.32739-6.126018 2.88257-1.934273.50635-5.592764.018-5.944495-2.57159-.339432-2.49784 3.146883-3.62515 5.030487-3.40487 2.348971.27609 4.810594 1.88085 6.86539 2.9962.05805.0318.117571.0678.174636.0977" fill="#fb0f0c" fill-rule="evenodd" stroke-width=".997833"/><path d="m30.439416 166.53244c-.83038 2.65532-3.391373 12.78024-8.011098 10.38606-2.24714-1.16419-.44077-5.0186.738881-6.32931 1.663711-1.84896 4.418525-2.82078 6.646972-3.78962.207104-.0897.418142-.17841.625245-.26713" fill="#fb0f0c" fill-rule="evenodd" stroke-width=".997833"/><path d="m30.439416 166.52447c-.83038-2.65433-3.391865-12.77924-8.011098-10.38606-2.247633 1.16519-.440278 5.0196.738881 6.33032 1.664202 1.84895 4.418525 2.82078 6.646972 3.78861.207104.0907.418142.17942.625245.26713" fill="#fb0f0c" fill-rule="evenodd" stroke-width=".997833"/><path d="m30.681446 172.59164c-.37436 1.70743-.451593 4.26606 1.035023 5.51299.967628.81134 3.472049.54521 2.893047-1.27583-.106258-.3349-1.270659-.68776-1.55893-1.1004-.598681-.85521-.5121-2.45399-.56818-3.43877-.07723-1.36952.06739-2.8178-.121015-4.15841-.790533 1.30274-1.341989 2.95933-1.679945 4.46042" fill="#fb0f0c" fill-rule="evenodd" stroke-width=".997833"/><path d="m30.681446 160.55996c-.37436-1.70643-.451593-4.26606 1.035023-5.51198.967628-.81135 3.471558-.54622 2.893047 1.27583-.106258.3349-1.271151.68775-1.55893 1.09941-.598681.8552-.5121 2.45397-.56818 3.43975-.07723 1.36953.06739 2.8178-.121015 4.15841-.791026-1.30274-1.341989-2.96033-1.679945-4.46142" fill="#fb0f0c" fill-rule="evenodd" stroke-width=".997833"/><path d="m34.599677 168.14717c1.843265-.45053 1.051256-4.48136-1.532366-2.45099-1.560405 1.22698-.378294 2.11508 1.532366 2.45099" fill="#fb0f0c" fill-rule="evenodd" stroke-width=".997833"/><path d="m30.399078 100.55007c-1.918531 1.04309-3.998908 2.32639-6.122575 2.88208-1.934273.50585-5.595715.0174-5.947938-2.5721-.339924-2.498831 3.148359-3.621661 5.030487-3.400384 2.348971.276596 4.80961 1.877364 6.86539 2.992224.05805.0314.117571.0673.174636.0982" fill="#fb0f0c" fill-rule="evenodd" stroke-width=".997833"/><path d="m30.435973 100.56601c-.826937 2.65333-3.390882 12.77824-8.007655 10.38557-2.248616-1.1652-.439294-5.02259.738881-6.33381 1.661251-1.84746 4.417049-2.81978 6.64402-3.78463.207104-.0902.41765-.17941.624754-.26713" fill="#fb0f0c" fill-rule="evenodd" stroke-width=".997833"/><path d="m30.439416 100.55804c-.827921-2.655322-3.39334-12.784721-8.011098-10.386059-2.246649 1.167186-.441262 5.013117.738881 6.325828 1.663219 1.850452 4.418033 2.824269 6.646972 3.793101.207104.0902.418633.17842.625245.26713" fill="#fb0f0c" fill-rule="evenodd" stroke-width=".997833"/><path d="m30.681446 106.62422c-.37436 1.70742-.451593 4.26655 1.035023 5.51348 1.026168.86019 3.438106.49987 2.869926-1.32318-.0851-.2731-1.331658-.76599-1.59976-1.19011-.562277-.88909-.463891-2.49185-.514068-3.49458-.06543-1.30174.08166-2.70416-.118063-3.97002-.775284 1.33762-1.33215 2.95035-1.673058 4.46441" fill="#fb0f0c" fill-rule="evenodd" stroke-width=".997833"/><path d="m30.681446 94.593531c-.375344-1.708417-.454053-4.266557 1.035023-5.512984.967137-.809355 3.472541-.546714 2.893047 1.275831-.106258.334906-1.270659.687752-1.55893 1.099906-.598188.854706-.5121 2.454479-.56818 3.439261-.07773 1.376501.04674 2.794367-.110685 4.154423-.0059.002-.01181.0045-.01722.008-.7743-1.336134-1.336578-2.950358-1.673058-4.464411" fill="#fb0f0c" fill-rule="evenodd" stroke-width=".997833"/><path d="m34.599677 102.17974c1.842281-.45152 1.053224-4.484345-1.532366-2.446504-1.55647 1.226994-.38223 2.114594 1.532366 2.446504" fill="#fb0f0c" fill-rule="evenodd" stroke-width=".997833"/><path d="m30.395634 67.566851c-1.920499 1.04359-3.997432 2.323407-6.122574 2.882081-1.931813.507343-5.597192.01794-5.944495-2.572094-.335005-2.497838 3.147867-3.62017 5.030487-3.400388 2.346511.273606 4.809118 1.877864 6.861947 2.991723.05854.0319.117571.06728.174635.09868" fill="#fb0f0c" fill-rule="evenodd" stroke-width=".997833"/><path d="m30.439416 67.582301c-.83038 2.654824-3.391865 12.779737-8.011098 10.386059-2.24714-1.164693-.440278-5.019098.738881-6.329814 1.664202-1.848959 4.418033-2.820783 6.646972-3.789119.207104-.09021.418633-.178915.625245-.267126" fill="#fb0f0c" fill-rule="evenodd" stroke-width=".997833"/><path d="m30.435973 67.574327c-.826937-2.654825-3.388914-12.779738-8.007655-10.385562-2.248125 1.164694-.439786 5.0186.738881 6.329317 1.662726 1.848957 4.416065 2.821778 6.64402 3.789616.207104.08971.41765.178417.624754.266629" fill="#fb0f0c" fill-rule="evenodd" stroke-width=".997833"/><path d="m30.681446 73.637015c-.375344 1.712404-.454053 4.264065 1.035023 5.512984.965661.809854 3.473525.555186 2.893047-1.271844-.106258-.334905-1.270659-.687752-1.55893-1.099906-.598188-.854706-.5121-2.454479-.56818-3.439261-.07773-1.376501.04674-2.794368-.110685-4.154423-.0059-.002-.01181-.0045-.01722-.008-.773317 1.334639-1.335593 2.947369-1.673058 4.460424" fill="#fb0f0c" fill-rule="evenodd" stroke-width=".997833"/><path d="m30.681446 61.609818c-.37436-1.707421-.451593-4.266059 1.035023-5.512486.966152-.810352 3.468606-.549206 2.893047 1.271844-.10675.337896-1.269183.689247-1.55893 1.103394-.598681.856202-.5121 2.453981-.56818 3.439759-.07773 1.376003.04674 2.793871-.110685 4.154424-.0063.002-.01181.0045-.01722.008-.774792-1.337629-1.33215-2.950359-1.673058-4.46491" fill="#fb0f0c" fill-rule="evenodd" stroke-width=".997833"/><path d="m34.599677 69.196027c1.842281-.449032 1.05224-4.489827-1.532366-2.449993-1.557453 1.228983-.38223 2.118576 1.532366 2.449993" fill="#fb0f0c" fill-rule="evenodd" stroke-width=".997833"/><path d="m30.399078 34.583138c-1.91804 1.045583-4.001859 2.326895-6.126018 2.882081-1.934273.505847-5.592764.01694-5.944495-2.571596-.339432-2.498336 3.146883-3.625652 5.030487-3.404873 2.348971.275599 4.810594 1.880853 6.86539 2.996208.05805.0319.117571.06678.174636.09818" fill="#fb0f0c" fill-rule="evenodd" stroke-width=".997833"/><path d="m30.439416 34.598587c-.83038 2.655323-3.391865 12.780236-8.011098 10.38606-2.24714-1.164694-.440278-5.019099.738881-6.329815 1.664202-1.848958 4.418525-2.820284 6.646972-3.789118.207104-.08971.418633-.178417.625245-.267127" fill="#fb0f0c" fill-rule="evenodd" stroke-width=".997833"/><path d="m30.439416 34.591111c-.829888-2.654824-3.391865-12.779737-8.011098-10.386059-2.247633 1.164693-.440278 5.019098.738881 6.329814 1.664202 1.848959 4.418525 2.820783 6.646972 3.789119.207104.09021.418633.178915.625245.267126" fill="#fb0f0c" fill-rule="evenodd" stroke-width=".997833"/><path d="m30.681446 40.657786c-.37436 1.706922-.451593 4.26606 1.035023 5.512984.967628.811349 3.472049.545219 2.893047-1.276328-.106258-.334906-1.270659-.687753-1.55893-1.099407-.598681-.855206-.5121-2.45448-.56818-3.43976-.07723-1.369026.06739-2.817792-.121015-4.157912-.791026 1.301746-1.34248 2.959329-1.679945 4.460423" fill="#fb0f0c" fill-rule="evenodd" stroke-width=".997833"/><path d="m30.681446 28.626602c-.37436-1.707419-.451593-4.266058 1.035023-5.512984.967628-.811349 3.472049-.545716 2.893047 1.27633-.106258.334407-1.270659.687253-1.55893 1.099407-.598681.855206-.5121 2.453981-.56818 3.439759-.07723 1.369027.06739 2.817294-.121015 4.157913-.790533-1.303242-1.341989-2.959329-1.679945-4.460425" fill="#fb0f0c" fill-rule="evenodd" stroke-width=".997833"/><path d="m34.599677 36.212812c1.842774-.450029 1.051748-4.481355-1.532366-2.450492-1.560405 1.226492-.378294 2.115587 1.532366 2.450492" fill="#fb0f0c" fill-rule="evenodd" stroke-width=".997833"/><path d="m30.399078 133.53329c-1.91804 1.04557-4.002352 2.32739-6.126018 2.88258-1.934765.50534-5.592764.0169-5.944495-2.5726-.339924-2.49883 3.147867-3.62116 5.030487-3.39989 2.348971.2766 4.80961 1.87687 6.86539 2.99222.05805.0309.117571.0668.174636.0977" fill="#fb0f0c" fill-rule="evenodd" stroke-width=".997833"/><path d="m30.439416 133.54923c-.83038 2.65433-3.391865 12.77924-8.011098 10.38606-2.24714-1.16519-.440278-5.0186.738881-6.33032 1.664202-1.84795 4.418525-2.82078 6.646972-3.78861.207104-.0907.418142-.17842.625245-.26713" fill="#fb0f0c" fill-rule="evenodd" stroke-width=".997833"/><path d="m30.439416 133.54126c-.83038-2.65483-3.391865-12.77974-8.011098-10.38556-2.24714 1.16469-.440278 5.0186.738881 6.32931 1.664202 1.84896 4.418033 2.82128 6.646972 3.79012.207104.0897.418142.17741.625245.26613" fill="#fb0f0c" fill-rule="evenodd" stroke-width=".997833"/><path d="m30.681446 139.60842c-.37436 1.70743-.451593 4.26607 1.035023 5.512.968612.81334 3.469097.54621 2.893047-1.27583-.106258-.33591-1.270659-.69074-1.55893-1.1024-.598681-.8552-.5121-2.45498-.56818-3.44076-.07773-1.37451.04674-2.79088-.110685-4.15043-.0059-.002-.01181-.004-.01722-.008-.774792 1.33763-1.33215 2.95037-1.673058 4.46541" fill="#fb0f0c" fill-rule="evenodd" stroke-width=".997833"/><path d="m30.681446 127.57675c-.372884-1.70842-.452577-4.26506 1.035023-5.51299.967628-.81135 3.472049-.54522 2.893047 1.27633-.106258.33441-1.271151.68776-1.55893 1.09991-.598681.85521-.5121 2.45397-.56818 3.43926-.07723 1.36902.06739 2.81779-.121015 4.1584-.789058-1.30373-1.341989-2.95932-1.679945-4.46091" fill="#fb0f0c" fill-rule="evenodd" stroke-width=".997833"/><path d="m34.599677 135.15897c1.837854-.43857 1.054208-4.48634-1.532366-2.44202-1.55155 1.22599-.378787 2.11708 1.532366 2.44202" fill="#fb0f0c" fill-rule="evenodd" stroke-width=".997833"/><path d="m83.124248 159.22532h.02705" fill="none" stroke-miterlimit="10" stroke-width=".026808"/><path d="m85.658185 124.18034c1.660759 0 16.129925-.13904 16.129925.13706v9.99334 5.77214c0 .44156.31385 2.60449 0 2.94537-1.02617 1.11735-16.129925-.65785-16.129925-.13655 0-6.23762 0-12.47424 0-18.71136" fill="#fb0f0c" fill-rule="evenodd" stroke-miterlimit="10" stroke-width=".026808"/><path d="m86.666151 127.71429c.67247-.78543 1.344448-1.57086 2.016426-2.35579.335989 1.17765.671978 2.35579 1.007966 3.53395-1.007966-.39272-2.015933-.78544-3.024392-1.17816" fill="#fff" fill-rule="evenodd" stroke-width=".997833"/><path d="m98.764704 125.3585c.670994.78493 1.343956 1.57036 2.014946 2.35579-1.007471.39272-2.014946.78544-3.024389 1.17816.336481-1.17816.672962-2.3563 1.009443-3.53395" fill="#fff" fill-rule="evenodd" stroke-width=".997833"/><path d="m98.827671 141.78332c.671978-.78543 1.343959-1.57087 2.016919-2.3563-1.009444-.39272-2.016919-.78543-3.024394-1.17815.335497 1.17815.670994 2.3563 1.007475 3.53445" fill="#fff" fill-rule="evenodd" stroke-width=".997833"/><path d="m88.682577 141.8501c-.671978-.78543-1.343956-1.56986-2.016426-2.3553 1.00846-.39272 2.016426-.78543 3.024392-1.17815-.335988 1.17815-.671977 2.35531-1.007966 3.53345" fill="#fff" fill-rule="evenodd" stroke-width=".997833"/><path d="m93.723395 124.18034c-.664599 2.32989-1.329198 4.65928-1.993797 6.98867-.247442.86716-5.10772 2.06026-6.071413 2.43504.963693.37578 5.823971 1.56788 6.071413 2.43604.664599 2.32839 1.329198 4.65877 1.993797 6.98816.66509-2.32939 1.329197-4.65977 1.993304-6.98816.247933-.86816 5.108211-2.06026 6.071411-2.43604-.9632-.37478-5.823478-1.56788-6.071411-2.43504-.664107-2.32939-1.328214-4.65878-1.993304-6.98867" fill="#fff" fill-rule="evenodd" stroke-width=".997833"/><path d="m143.12212 127.71429c-.3286 1.53399-.65623 3.06798-.98484 4.60196-.11413.53476-3.43762 1.10739-4.05548 1.2878.61786.18141 3.94135.75353 4.05548 1.28779.32861 1.53399.65624 3.06798.98484 4.60296.32763-1.53498.65624-3.06897.98485-4.60296.11413-.53426 3.43762-1.10638 4.05548-1.28779-.61786-.18041-3.94135-.75304-4.05548-1.2878-.32861-1.53398-.65722-3.06797-.98485-4.60196" fill="#fff" fill-rule="evenodd" stroke-miterlimit="10" stroke-width=".026808"/><path d="m143.1113 111.21472c-.32762 1.53399-.65624 3.06797-.98386 4.60245-.11412.53426-3.43761 1.10689-4.05646 1.28729.61885.18092 3.94234.75305 4.05646 1.2878.32762 1.53398.65624 3.06847.98386 4.60246.32861-1.53399.65722-3.06848.98584-4.60246.11412-.53475 3.43761-1.10688 4.05548-1.2878-.61787-.1804-3.94136-.75303-4.05548-1.28729-.32862-1.53448-.65723-3.06846-.98584-4.60245" fill="#fff" fill-rule="evenodd" stroke-miterlimit="10" stroke-width=".026808"/><path d="m143.13885 144.19444c-.32861 1.53399-.65623 3.06798-.98386 4.60197-.11512.53425-3.43762 1.10738-4.05646 1.28779.61787.1804 3.94134.75353 4.05646 1.28779.32763 1.53399.65525 3.06797.98386 4.60295.32862-1.53498.65722-3.06896.98484-4.60295.11512-.53426 3.43861-1.10739 4.05647-1.28779-.61786-.18041-3.94135-.75354-4.05647-1.28779-.32762-1.53399-.65622-3.06798-.98484-4.60197" fill="#fff" fill-rule="evenodd" stroke-miterlimit="10" stroke-width=".026808"/><path d="m129.00764 127.71429c-.32763 1.53399-.65624 3.06798-.98484 4.60196-.11413.53476-3.43762 1.10739-4.05548 1.2878.61786.18141 3.94135.75353 4.05548 1.28779.3286 1.53399.65721 3.06798.98484 4.60296.32861-1.53498.65623-3.06897.98485-4.60296.11413-.53426 3.43762-1.10638 4.05548-1.28779-.61786-.18041-3.94135-.75304-4.05548-1.2878-.32862-1.53398-.65624-3.06797-.98485-4.60196" fill="#fff" fill-rule="evenodd" stroke-miterlimit="10" stroke-width=".026808"/><path d="m128.9978 111.21472c-.32762 1.53399-.65624 3.06797-.98485 4.60245-.11412.53426-3.43761 1.10689-4.05548 1.28729.61787.18092 3.94136.75305 4.05548 1.2878.32861 1.53398.65723 3.06847.98485 4.60246.32861-1.53399.65624-3.06848.98485-4.60246.11412-.53475 3.43761-1.10688 4.05548-1.2878-.61787-.1804-3.94136-.75303-4.05548-1.28729-.32861-1.53448-.65624-3.06846-.98485-4.60245" fill="#fff" fill-rule="evenodd" stroke-miterlimit="10" stroke-width=".026808"/><path d="m129.02437 144.19444c-.32763 1.53399-.65525 3.06798-.98386 4.60197-.11413.53425-3.43762 1.10738-4.05647 1.28779.61885.1804 3.94234.75353 4.05647 1.28779.32861 1.53399.65623 3.06797.98386 4.60295.32861-1.53498.65721-3.06896.98582-4.60295.11414-.53426 3.43762-1.10739 4.05549-1.28779-.61787-.18041-3.94135-.75354-4.05549-1.28779-.32861-1.53399-.65721-3.06798-.98582-4.60197" fill="#fff" fill-rule="evenodd" stroke-miterlimit="10" stroke-width=".026808"/><path d="m100.77965 176.01147c-.32762 1.53399-.65525 3.06797-.983859 4.60296-.114128.53425-3.437614 1.10638-4.055479 1.28679.617865.18042 3.941351.75354 4.055479 1.28879.328609 1.53299.656239 3.06797.983859 4.60097.32861-1.533.65722-3.06798.98583-4.60097.11413-.53525 3.43762-1.10837 4.05548-1.28879-.61786-.18041-3.94135-.75254-4.05548-1.28679-.32861-1.53499-.65722-3.06897-.98583-4.60296" fill="#fff" fill-rule="evenodd" stroke-miterlimit="10" stroke-width=".026808"/><path d="m86.666151 176.01147c-.328118 1.53399-.656235 3.06797-.984354 4.60296-.114619.53425-3.438106 1.10638-4.056463 1.28679.618357.18042 3.941844.75354 4.056463 1.28879.328119 1.53299.656236 3.06797.984354 4.60097.328611-1.533.656728-3.06798.984846-4.60097.114621-.53525 3.438107-1.10837 4.055972-1.28879-.617865-.18041-3.941352-.75254-4.055972-1.28679-.328118-1.53499-.656235-3.06897-.984846-4.60296" fill="#fff" fill-rule="evenodd" stroke-miterlimit="10" stroke-width=".026808"/><path d="m114.8843 175.98356c-.32861 1.53498-.65722 3.06897-.98485 4.60296-.11413.53425-3.43859 1.10639-4.05646 1.28779.61787.18041 3.94233.75353 4.05646 1.28779.32763 1.53399.65624 3.06798.98485 4.60196.32861-1.53398.65624-3.06797.98387-4.60196.1151-.53426 3.4376-1.10738 4.05645-1.28779-.61885-.1814-3.94135-.75354-4.05645-1.28779-.32763-1.53399-.65526-3.06798-.98387-4.60296" fill="#fff" fill-rule="evenodd" stroke-miterlimit="10" stroke-width=".026808"/><path d="m72.592496 176.02742c-.328118 1.53399-.656237 3.06797-.984354 4.60195-.114128.53526-3.437615 1.10739-4.055972 1.2878.618357.18041 3.941844.75254 4.055972 1.28779.328117 1.53399.656236 3.06797.984354 4.60196.32861-1.53399.656728-3.06797.985338-4.60196.114128-.53525 3.437614-1.10738 4.055479-1.28779-.617865-.18041-3.941351-.75254-4.055479-1.2878-.32861-1.53398-.656729-3.06796-.985338-4.60195" fill="#fff" fill-rule="evenodd" stroke-miterlimit="10" stroke-width=".026808"/><path d="m143.09163 176.00748c-.32861 1.53498-.65624 3.06797-.98386 4.60296-.11512.53426-3.4386 1.10638-4.05746 1.28779.61886.17941 3.94234.75254 4.05746 1.2878.32762 1.53298.65525 3.06797.98386 4.60096.32861-1.53299.65624-3.06798.98484-4.60096.11413-.53526 3.43762-1.10839 4.05647-1.2878-.61885-.18141-3.94234-.75353-4.05647-1.28779-.3286-1.53499-.65623-3.06798-.98484-4.60296" fill="#fff" fill-rule="evenodd" stroke-miterlimit="10" stroke-width=".026808"/><path d="m128.97714 176.00748c-.32762 1.53498-.65623 3.06797-.98386 4.60296-.11512.53426-3.43762 1.10638-4.05647 1.28779.61885.17941 3.94135.75254 4.05647 1.2878.32763 1.53298.65624 3.06797.98386 4.60096.32862-1.53299.65722-3.06798.98583-4.60096.11413-.53526 3.43762-1.10839 4.05548-1.2878-.61786-.18141-3.94135-.75353-4.05548-1.28779-.32861-1.53499-.65721-3.06798-.98583-4.60296" fill="#fff" fill-rule="evenodd" stroke-miterlimit="10" stroke-width=".026808"/><path d="m100.77965 192.50357c-.32762 1.53399-.65525 3.06798-.983859 4.60196-.114128.53426-3.437614 1.10738-4.055479 1.2878.617865.18041 3.941351.75254 4.055479 1.28779.328609 1.53399.656239 3.06797.983859 4.60196.32861-1.53399.65722-3.06797.98583-4.60196.11413-.53525 3.43762-1.10738 4.05548-1.28779-.61786-.18042-3.94135-.75354-4.05548-1.2878-.32861-1.53398-.65722-3.06797-.98583-4.60196" fill="#fff" fill-rule="evenodd" stroke-miterlimit="10" stroke-width=".026808"/><path d="m86.666151 192.50357c-.328118 1.53399-.656235 3.06798-.984354 4.60196-.114619.53426-3.438106 1.10738-4.056463 1.2878.618357.18041 3.941844.75254 4.056463 1.28779.328119 1.53399.656236 3.06797.984354 4.60196.328611-1.53399.656728-3.06797.984846-4.60196.114621-.53525 3.438107-1.10738 4.055972-1.28779-.617865-.18042-3.941352-.75354-4.055972-1.2878-.328118-1.53398-.656235-3.06797-.984846-4.60196" fill="#fff" fill-rule="evenodd" stroke-miterlimit="10" stroke-width=".026808"/><path d="m114.8843 192.47567c-.32861 1.53398-.65722 3.06797-.98485 4.60296-.11413.53424-3.43859 1.10638-4.05646 1.28778.61787.17942 3.94233.75255 4.05646 1.28779.32763 1.533.65624 3.06798.98485 4.60098.32861-1.533.65624-3.06798.98387-4.60098.1151-.53524 3.4376-1.10837 4.05645-1.28779-.61885-.1814-3.94135-.75354-4.05645-1.28778-.32763-1.53499-.65526-3.06898-.98387-4.60296" fill="#fff" fill-rule="evenodd" stroke-miterlimit="10" stroke-width=".026808"/><path d="m72.592496 192.51952c-.328118 1.53399-.656237 3.06798-.984354 4.60197-.114128.53425-3.437615 1.10738-4.055972 1.28779.618357.1804 3.941844.75253 4.055972 1.28779.328117 1.53398.656236 3.06797.984354 4.60195.32861-1.53398.656728-3.06797.985338-4.60195.114128-.53526 3.437614-1.10739 4.055479-1.28779-.617865-.18041-3.941351-.75354-4.055479-1.28779-.32861-1.53399-.656729-3.06798-.985338-4.60197" fill="#fff" fill-rule="evenodd" stroke-miterlimit="10" stroke-width=".026808"/><path d="m143.09163 192.49959c-.32861 1.53399-.65624 3.06797-.98386 4.60196-.11512.53525-3.4386 1.10738-4.05746 1.2878.61886.1804 3.94234.75353 4.05746 1.28778.32762 1.53399.65525 3.06797.98386 4.60196.32861-1.53399.65624-3.06797.98484-4.60196.11413-.53425 3.43762-1.10738 4.05647-1.28778-.61885-.18042-3.94234-.75255-4.05647-1.2878-.3286-1.53399-.65623-3.06797-.98484-4.60196" fill="#fff" fill-rule="evenodd" stroke-miterlimit="10" stroke-width=".026808"/><path d="m128.97714 192.49959c-.32762 1.53399-.65623 3.06797-.98386 4.60196-.11512.53525-3.43762 1.10738-4.05647 1.2878.61885.1804 3.94135.75353 4.05647 1.28778.32763 1.53399.65624 3.06797.98386 4.60196.32862-1.53399.65722-3.06797.98583-4.60196.11413-.53425 3.43762-1.10738 4.05548-1.28778-.61786-.18042-3.94135-.75255-4.05548-1.2878-.32861-1.53399-.65721-3.06797-.98583-4.60196" fill="#fff" fill-rule="evenodd" stroke-miterlimit="10" stroke-width=".026808"/><path d="m100.77965 208.99568c-.32762 1.53299-.65525 3.06798-.983859 4.60197-.114128.53424-3.437614 1.10738-4.055479 1.28679.617865.1814 3.941351.75353 4.055479 1.28779.328609 1.53498.656239 3.06798.983859 4.60295.32861-1.53497.65722-3.06797.98583-4.60295.11413-.53426 3.43762-1.10639 4.05548-1.28779-.61786-.17941-3.94135-.75255-4.05548-1.28679-.32861-1.53399-.65722-3.06898-.98583-4.60197" fill="#fff" fill-rule="evenodd" stroke-miterlimit="10" stroke-width=".026808"/><path d="m86.666151 208.99568c-.328118 1.53299-.656235 3.06798-.984354 4.60197-.114619.53424-3.438106 1.10738-4.056463 1.28679.618357.1814 3.941844.75353 4.056463 1.28779.328119 1.53498.656236 3.06798.984354 4.60295.328611-1.53497.656728-3.06797.984846-4.60295.114621-.53426 3.438107-1.10639 4.055972-1.28779-.617865-.17941-3.941352-.75255-4.055972-1.28679-.328118-1.53399-.656235-3.06898-.984846-4.60197" fill="#fff" fill-rule="evenodd" stroke-miterlimit="10" stroke-width=".026808"/><path d="m114.8843 208.96777c-.32861 1.53399-.65722 3.06797-.98485 4.60296-.11413.53426-3.43859 1.10638-4.05646 1.28679.61787.18042 3.94233.75255 4.05646 1.2878.32763 1.53398.65624 3.06797.98485 4.60196.32861-1.53399.65624-3.06798.98387-4.60196.1151-.53525 3.4376-1.10738 4.05645-1.2878-.61885-.18041-3.94135-.75253-4.05645-1.28679-.32763-1.53499-.65526-3.06897-.98387-4.60296" fill="#fff" fill-rule="evenodd" stroke-miterlimit="10" stroke-width=".026808"/><path d="m72.592496 209.01163c-.328118 1.53298-.656237 3.06797-.984354 4.60096-.114128.53425-3.437615 1.10739-4.055972 1.28779.618357.18141 3.941844.75354 4.055972 1.28779.328117 1.53499.656236 3.06798.984354 4.60297.32861-1.53499.656728-3.06798.985338-4.60297.114128-.53425 3.437614-1.10638 4.055479-1.28779-.617865-.1804-3.941351-.75354-4.055479-1.28779-.32861-1.53299-.656729-3.06798-.985338-4.60096" fill="#fff" fill-rule="evenodd" stroke-miterlimit="10" stroke-width=".026808"/><path d="m143.09163 208.99169c-.32861 1.53299-.65624 3.06798-.98386 4.60196-.11512.53426-3.4386 1.10739-4.05746 1.2878.61886.18041 3.94234.75253 4.05746 1.28679.32762 1.53499.65525 3.06798.98386 4.60296.32861-1.53498.65624-3.06797.98484-4.60296.11413-.53426 3.43762-1.10638 4.05647-1.28679-.61885-.18041-3.94234-.75354-4.05647-1.2878-.3286-1.53398-.65623-3.06897-.98484-4.60196" fill="#fff" fill-rule="evenodd" stroke-miterlimit="10" stroke-width=".026808"/><path d="m128.97714 208.99169c-.32762 1.53299-.65623 3.06798-.98386 4.60196-.11512.53426-3.43762 1.10739-4.05647 1.2878.61885.18041 3.94135.75253 4.05647 1.28679.32763 1.53499.65624 3.06798.98386 4.60296.32862-1.53498.65722-3.06797.98583-4.60296.11413-.53426 3.43762-1.10638 4.05548-1.28679-.61786-.18041-3.94135-.75354-4.05548-1.2878-.32861-1.53398-.65721-3.06897-.98583-4.60196" fill="#fff" fill-rule="evenodd" stroke-miterlimit="10" stroke-width=".026808"/><path d="m100.77965 160.69751c-.32762 1.53499-.65525 3.06797-.983859 4.60296-.114128.53426-3.437614 1.10638-4.055479 1.28779.617865.18042 3.941351.75254 4.055479 1.2878.328609 1.53298.656239 3.06797.983859 4.60096.32861-1.53299.65722-3.06798.98583-4.60096.11413-.53526 3.43762-1.10838 4.05548-1.2878-.61786-.18141-3.94135-.75353-4.05548-1.28779-.32861-1.53499-.65722-3.06797-.98583-4.60296" fill="#fff" fill-rule="evenodd" stroke-miterlimit="10" stroke-width=".026808"/><path d="m86.666151 160.69751c-.328118 1.53499-.656235 3.06797-.984354 4.60296-.114619.53426-3.438106 1.10638-4.056463 1.28779.618357.17942 3.941844.75254 4.056463 1.2878.328119 1.53298.656236 3.06797.984354 4.60096.328611-1.53299.656728-3.06798.984846-4.60096.114621-.53526 3.438107-1.10838 4.055972-1.2878-.617865-.18141-3.941352-.75353-4.055972-1.28779-.328118-1.53499-.656235-3.06797-.984846-4.60296" fill="#fff" fill-rule="evenodd" stroke-miterlimit="10" stroke-width=".026808"/><path d="m114.8843 160.6706c-.32861 1.53399-.65722 3.06798-.98485 4.60197-.11413.53424-3.43859 1.10738-4.05646 1.28778.61787.18041 3.94233.75354 4.05646 1.28779.32763 1.53399.65624 3.06798.98485 4.60196.32861-1.53398.65624-3.06797.98387-4.60196.1151-.53425 3.4376-1.10738 4.05645-1.28779-.61885-.1804-3.94135-.75354-4.05645-1.28778-.32763-1.53399-.65526-3.06798-.98387-4.60197" fill="#fff" fill-rule="evenodd" stroke-miterlimit="10" stroke-width=".026808"/><path d="m72.592496 160.71346c-.328118 1.53399-.656237 3.06798-.984354 4.60295-.114128.53426-3.437615 1.10639-4.055972 1.28681.618357.1804 3.941844.75353 4.055972 1.28878.328117 1.533.656236 3.06797.984354 4.60096.32861-1.53299.656728-3.06796.985338-4.60096.114128-.53525 3.437614-1.10838 4.055479-1.28878-.617865-.18042-3.941351-.75255-4.055479-1.28681-.32861-1.53497-.656729-3.06896-.985338-4.60295" fill="#fff" fill-rule="evenodd" stroke-miterlimit="10" stroke-width=".026808"/><path d="m143.09163 160.69353c-.32861 1.53497-.65624 3.06797-.98386 4.60295-.11512.53426-3.4386 1.10639-4.05746 1.28779.61886.18042 3.94234.75255 4.05746 1.2878.32762 1.53298.65525 3.06797.98386 4.60196.32861-1.53399.65624-3.06898.98484-4.60196.11413-.53525 3.43762-1.10738 4.05647-1.2878-.61885-.1814-3.94234-.75353-4.05647-1.28779-.3286-1.53498-.65623-3.06798-.98484-4.60295" fill="#fff" fill-rule="evenodd" stroke-miterlimit="10" stroke-width=".026808"/><path d="m128.97714 160.69353c-.32762 1.53497-.65623 3.06797-.98386 4.60295-.11512.53426-3.43762 1.10639-4.05647 1.28779.61885.18042 3.94135.75255 4.05647 1.2878.32763 1.53298.65624 3.06797.98386 4.60196.32862-1.53399.65722-3.06898.98583-4.60196.11413-.53525 3.43762-1.10738 4.05548-1.2878-.61786-.1814-3.94135-.75353-4.05548-1.28779-.32861-1.53498-.65721-3.06798-.98583-4.60295" fill="#fff" fill-rule="evenodd" stroke-miterlimit="10" stroke-width=".026808"/><path d="m86.666151 94.731082c-.328118 1.533987-.656235 3.067974-.984354 4.601961-.114619.534753-3.438106 1.107377-4.056463 1.287797.618357.18041 3.941844.75303 4.056463 1.28779.328119 1.53398.656236 3.06797.984354 4.60196.328611-1.53399.656728-3.06798.984846-4.60196.114621-.53476 3.438107-1.10738 4.055972-1.28779-.617865-.18042-3.941352-.753044-4.055972-1.287797-.328118-1.533987-.656235-3.067974-.984846-4.601961" fill="#fff" fill-rule="evenodd" stroke-miterlimit="10" stroke-width=".026808"/><path d="m72.552158 94.731082c-.328118 1.533987-.656237 3.067974-.984354 4.601961-.114128.534753-3.438107 1.107377-4.056464 1.287797.618357.18041 3.942335.75303 4.056464 1.28779.328117 1.53398.656236 3.06797.984354 4.60196.32861-1.53399.656727-3.06798.984846-4.60196.114619-.53476 3.438105-1.10738 4.055971-1.28779-.617866-.18042-3.941352-.753044-4.055971-1.287797-.328119-1.533987-.656237-3.067974-.984846-4.601961" fill="#fff" fill-rule="evenodd" stroke-miterlimit="10" stroke-width=".026808"/><path d="m114.8902 94.731082c-.32762 1.533987-.65525 3.067974-.98386 4.601961-.11412.534753-3.43761 1.107377-4.05646 1.287797.61885.18041 3.94234.75303 4.05646 1.28779.32861 1.53398.65624 3.06797.98386 4.60196.32861-1.53399.65723-3.06798.98584-4.60196.11412-.53476 3.43761-1.10738 4.05547-1.28779-.61786-.18042-3.94135-.753044-4.05547-1.287797-.32861-1.533987-.65723-3.067974-.98584-4.601961" fill="#fff" fill-rule="evenodd" stroke-miterlimit="10" stroke-width=".026808"/><path d="m100.77375 94.731082c-.32861 1.533987-.65722 3.067974-.984845 4.601961-.114129.534753-3.437615 1.107377-4.056465 1.287797.61885.18041 3.942336.75303 4.056465 1.28779.327625 1.53398.656235 3.06797.984845 4.60196.32861-1.53399.65624-3.06798.98485-4.60196.11412-.53476 3.43761-1.10738 4.05548-1.28779-.61787-.18042-3.94136-.753044-4.05548-1.287797-.32861-1.533987-.65624-3.067974-.98485-4.601961" fill="#fff" fill-rule="evenodd" stroke-miterlimit="10" stroke-width=".026808"/><path d="m72.559537 78.227513c-.328119 1.533988-.656729 3.067975-.984846 4.601962-.114621.534752-3.437615 1.107381-4.055972 1.287792.618357.180908 3.941843.753039 4.055972 1.287791.328117 1.533987.656727 3.067974.984846 4.60246.328117-1.534486.656236-3.068473.984846-4.60246.114127-.534752 3.437613-1.106883 4.055479-1.287791-.617866-.180411-3.941352-.75304-4.055479-1.287792-.32861-1.533987-.656729-3.067974-.984846-4.601962" fill="#fff" fill-rule="evenodd" stroke-miterlimit="10" stroke-width=".026808"/><path d="m86.666151 78.238976c-.328118 1.533987-.656235 3.068472-.984354 4.60246-.114619.534752-3.438106 1.106883-4.056463 1.287792.618357.180409 3.941844.753039 4.056463 1.287791.328119 1.533987.656236 3.067974.984354 4.601962.328611-1.533988.656728-3.067975.984846-4.601962.114621-.534752 3.438107-1.107381 4.055972-1.287791-.617865-.180909-3.941352-.75304-4.055972-1.287792-.328118-1.533988-.656235-3.068473-.984846-4.60246" fill="#fff" fill-rule="evenodd" stroke-miterlimit="10" stroke-width=".026808"/><path d="m100.77965 78.238976c-.32762 1.533987-.65525 3.068472-.983859 4.60246-.114128.534752-3.437614 1.106883-4.055479 1.287792.617865.180409 3.941351.753039 4.055479 1.287791.328609 1.533987.656239 3.067974.983859 4.601962.32861-1.533988.65722-3.067975.98583-4.601962.11413-.534752 3.43762-1.107381 4.05548-1.287791-.61786-.180909-3.94135-.75304-4.05548-1.287792-.32861-1.533988-.65722-3.068473-.98583-4.60246" fill="#fff" fill-rule="evenodd" stroke-miterlimit="10" stroke-width=".026808"/><path d="m114.89414 78.238976c-.32861 1.533987-.65723 3.068472-.98485 4.60246-.11412.534752-3.43761 1.106883-4.05646 1.287792.61885.180409 3.94234.753039 4.05646 1.287791.32762 1.533987.65624 3.067974.98485 4.601962.32861-1.533988.65624-3.067975.98485-4.601962.11412-.534752 3.43761-1.107381 4.05645-1.287791-.61884-.180909-3.94233-.75304-4.05645-1.287792-.32861-1.533988-.65624-3.068473-.98485-4.60246" fill="#fff" fill-rule="evenodd" stroke-miterlimit="10" stroke-width=".026808"/><path d="m143.10835 94.711147c-.32762 1.533987-.65624 3.067974-.98485 4.60246-.11412.534752-3.43761 1.106883-4.05547 1.287293.61786.18091 3.94135.75354 4.05547 1.28779.32861 1.53399.65723 3.06798.98485 4.60246.32763-1.53448.65624-3.06847.98485-4.60246.11413-.53425 3.43761-1.10688 4.05548-1.28779-.61787-.18041-3.94135-.752541-4.05548-1.287293-.32861-1.534486-.65722-3.068473-.98485-4.60246" fill="#fff" fill-rule="evenodd" stroke-miterlimit="10" stroke-width=".026808"/><path d="m143.12212 78.238976c-.3286 1.533987-.65623 3.068472-.98484 4.60246-.11413.534752-3.43762 1.106883-4.05548 1.287792.61786.180409 3.94135.753039 4.05548 1.287791.32861 1.533987.65624 3.067974.98484 4.601962.32763-1.533988.65624-3.067975.98485-4.601962.11413-.534752 3.43762-1.107381 4.05548-1.287791-.61786-.180909-3.94135-.75304-4.05548-1.287792-.32861-1.533988-.65722-3.068473-.98485-4.60246" fill="#fff" fill-rule="evenodd" stroke-miterlimit="10" stroke-width=".026808"/><path d="m128.99485 94.711147c-.32861 1.533987-.65722 3.067974-.98485 4.60246-.11413.534752-3.43761 1.106883-4.05645 1.287293.61884.18091 3.94232.75354 4.05645 1.28779.32763 1.53399.65624 3.06798.98485 4.60246.32861-1.53448.65624-3.06847.98386-4.60246.11511-.53425 3.4386-1.10688 4.05646-1.28779-.61786-.18041-3.94135-.752541-4.05646-1.287293-.32762-1.534486-.65525-3.068473-.98386-4.60246" fill="#fff" fill-rule="evenodd" stroke-miterlimit="10" stroke-width=".026808"/><path d="m129.00764 78.238976c-.32763 1.533987-.65624 3.068472-.98484 4.60246-.11413.534752-3.43762 1.106883-4.05548 1.287792.61786.180409 3.94135.753039 4.05548 1.287791.3286 1.533987.65721 3.067974.98484 4.601962.32861-1.533988.65623-3.067975.98485-4.601962.11413-.534752 3.43762-1.107381 4.05548-1.287791-.61786-.180909-3.94135-.75304-4.05548-1.287792-.32862-1.533988-.65624-3.068473-.98485-4.60246" fill="#fff" fill-rule="evenodd" stroke-miterlimit="10" stroke-width=".026808"/><path d="m86.666151 61.747369c-.328118 1.533986-.656235 3.067974-.984354 4.602459-.114619.534255-3.438106 1.106883-4.056463 1.287792.618357.180411 3.941844.752541 4.056463 1.287293.328119 1.533987.656236 3.068473.984354 4.60246.328611-1.533987.656728-3.068473.984846-4.60246.114621-.534752 3.438107-1.106882 4.055972-1.287293-.617865-.180909-3.941352-.753537-4.055972-1.287792-.328118-1.534485-.656235-3.068473-.984846-4.602459" fill="#fff" fill-rule="evenodd" stroke-miterlimit="10" stroke-width=".026808"/><path d="m72.552158 61.747369c-.328118 1.533986-.656237 3.067974-.984354 4.602459-.114128.534255-3.438107 1.106883-4.056464 1.287792.618357.180411 3.942335.752541 4.056464 1.287293.328117 1.533987.656236 3.068473.984354 4.60246.32861-1.533987.656727-3.068473.984846-4.60246.114619-.534752 3.438105-1.106882 4.055971-1.287293-.617866-.180909-3.941352-.753537-4.055971-1.287792-.328119-1.534485-.656237-3.068473-.984846-4.602459" fill="#fff" fill-rule="evenodd" stroke-miterlimit="10" stroke-width=".026808"/><path d="m114.8902 61.747369c-.32762 1.533986-.65525 3.067974-.98386 4.602459-.11412.534255-3.43761 1.106883-4.05646 1.287792.61885.180411 3.94234.752541 4.05646 1.287293.32861 1.533987.65624 3.068473.98386 4.60246.32861-1.533987.65723-3.068473.98584-4.60246.11412-.534752 3.43761-1.106882 4.05547-1.287293-.61786-.180909-3.94135-.753537-4.05547-1.287792-.32861-1.534485-.65723-3.068473-.98584-4.602459" fill="#fff" fill-rule="evenodd" stroke-miterlimit="10" stroke-width=".026808"/><path d="m100.77375 61.747369c-.32861 1.533986-.65722 3.067974-.984845 4.602459-.114129.534255-3.437615 1.106883-4.056465 1.287792.61885.180411 3.942336.752541 4.056465 1.287293.327625 1.533987.656235 3.068473.984845 4.60246.32861-1.533987.65624-3.068473.98485-4.60246.11412-.534752 3.43761-1.106882 4.05548-1.287293-.61787-.180909-3.94136-.753537-4.05548-1.287792-.32861-1.534485-.65624-3.068473-.98485-4.602459" fill="#fff" fill-rule="evenodd" stroke-miterlimit="10" stroke-width=".026808"/><path d="m72.559537 45.2438c-.328119 1.533987-.656729 3.067975-.984846 4.601961-.114129.534753-3.437615 1.107381-4.055972 1.287792.618357.180909 3.941351.753537 4.055972 1.287792.328117 1.533987.656727 3.067974.984846 4.601961.328117-1.533987.656236-3.067974.984846-4.601961.114127-.534255 3.437613-1.106883 4.055479-1.287792-.617866-.180411-3.941352-.753039-4.055479-1.287792-.32861-1.533986-.656729-3.067974-.984846-4.601961" fill="#fff" fill-rule="evenodd" stroke-miterlimit="10" stroke-width=".026808"/><path d="m86.666151 45.255761c-.328118 1.533987-.656235 3.067974-.984354 4.601961-.114619.534753-3.438106 1.107382-4.056463 1.287792.618357.180411 3.941844.753039 4.056463 1.287792.328119 1.533987.656236 3.067974.984354 4.601961.328611-1.533987.656728-3.067974.984846-4.601961.114621-.534753 3.438107-1.107381 4.055972-1.287792-.617865-.18041-3.941352-.753039-4.055972-1.287792-.328118-1.533987-.656235-3.067974-.984846-4.601961" fill="#fff" fill-rule="evenodd" stroke-miterlimit="10" stroke-width=".026808"/><path d="m100.77965 45.255761c-.32762 1.533987-.65525 3.067974-.983859 4.601961-.114128.534753-3.437614 1.107382-4.055479 1.287792.617865.180411 3.941351.753039 4.055479 1.287792.328609 1.533987.656239 3.067974.983859 4.601961.32861-1.533987.65722-3.067974.98583-4.601961.11413-.534753 3.43762-1.107381 4.05548-1.287792-.61786-.18041-3.94135-.753039-4.05548-1.287792-.32861-1.533987-.65722-3.067974-.98583-4.601961" fill="#fff" fill-rule="evenodd" stroke-miterlimit="10" stroke-width=".026808"/><path d="m114.89414 45.255761c-.32861 1.533987-.65723 3.067974-.98485 4.601961-.11412.534753-3.43761 1.107382-4.05646 1.287792.61885.180411 3.94234.753039 4.05646 1.287792.32762 1.533987.65624 3.067974.98485 4.601961.32861-1.533987.65624-3.067974.98485-4.601961.11412-.534753 3.43761-1.107381 4.05645-1.287792-.61884-.18041-3.94233-.753039-4.05645-1.287792-.32861-1.533987-.65624-3.067974-.98485-4.601961" fill="#fff" fill-rule="evenodd" stroke-miterlimit="10" stroke-width=".026808"/><path d="m143.10835 61.727932c-.32762 1.533988-.65624 3.067974-.98485 4.601961-.11412.534753-3.43761 1.107382-4.05547 1.287792.61786.18041 3.94135.75304 4.05547 1.287791.32861 1.533988.65723 3.067975.98485 4.601963.32763-1.533988.65624-3.067975.98485-4.601963.11413-.534751 3.43761-1.10738 4.05548-1.287791-.61787-.18041-3.94135-.753039-4.05548-1.287792-.32861-1.533987-.65722-3.067973-.98485-4.601961" fill="#fff" fill-rule="evenodd" stroke-miterlimit="10" stroke-width=".026808"/><path d="m143.12212 45.255761c-.3286 1.533987-.65623 3.067974-.98484 4.601961-.11413.534753-3.43762 1.107382-4.05548 1.287792.61786.180411 3.94135.753039 4.05548 1.287792.32861 1.533987.65624 3.067974.98484 4.601961.32763-1.533987.65624-3.067974.98485-4.601961.11413-.534753 3.43762-1.107381 4.05548-1.287792-.61786-.18041-3.94135-.753039-4.05548-1.287792-.32861-1.533987-.65722-3.067974-.98485-4.601961" fill="#fff" fill-rule="evenodd" stroke-miterlimit="10" stroke-width=".026808"/><path d="m128.99485 61.727932c-.32861 1.533988-.65722 3.067974-.98485 4.601961-.11413.534753-3.43761 1.107382-4.05645 1.287792.61884.18041 3.94232.75304 4.05645 1.287791.32763 1.533988.65624 3.067975.98485 4.601963.32861-1.533988.65624-3.067975.98386-4.601963.11511-.534751 3.4386-1.10738 4.05646-1.287791-.61786-.18041-3.94135-.753039-4.05646-1.287792-.32762-1.533987-.65525-3.067973-.98386-4.601961" fill="#fff" fill-rule="evenodd" stroke-miterlimit="10" stroke-width=".026808"/><path d="m129.00764 45.255761c-.32763 1.533987-.65624 3.067974-.98484 4.601961-.11413.534753-3.43762 1.107382-4.05548 1.287792.61786.180411 3.94135.753039 4.05548 1.287792.3286 1.533987.65721 3.067974.98484 4.601961.32861-1.533987.65623-3.067974.98485-4.601961.11413-.534753 3.43762-1.107381 4.05548-1.287792-.61786-.18041-3.94135-.753039-4.05548-1.287792-.32862-1.533987-.65624-3.067974-.98485-4.601961" fill="#fff" fill-rule="evenodd" stroke-miterlimit="10" stroke-width=".026808"/><path d="m44.314331 144.22136c-.328118 1.53498-.656236 3.06797-.984354 4.60295-.114128.53426-3.437614 1.10639-4.055971 1.28779.618357.18042 3.941843.75255 4.055971 1.2878.328118 1.53298.656236 3.06797.984354 4.60196.32861-1.53399.656728-3.06898.984846-4.60196.11462-.53525 3.438106-1.10738 4.055971-1.2878-.617865-.1814-3.941351-.75353-4.055971-1.28779-.328118-1.53498-.656236-3.06797-.984846-4.60295" fill="#fff" fill-rule="evenodd" stroke-miterlimit="10" stroke-width=".026808"/><path d="m44.341388 127.73822c-.328119 1.53398-.656237 3.06797-.984355 4.60196-.114127.53426-3.437614 1.10639-4.055971 1.28779.618356.18041 3.941844.75354 4.055971 1.2878.328118 1.53398.656236 3.06797.984355 4.60196.32861-1.53399.656727-3.06798.985337-4.60196.114128-.53426 3.437614-1.10739 4.05548-1.2878-.617866-.1814-3.941352-.75353-4.05548-1.28779-.32861-1.53399-.656728-3.06798-.985337-4.60196" fill="#fff" fill-rule="evenodd" stroke-miterlimit="10" stroke-width=".026808"/><path d="m44.358113 111.2187c-.328118 1.53399-.656236 3.06847-.984354 4.60246-.11462.53426-3.437614 1.10688-4.055971 1.28779.618357.18042 3.941351.75304 4.055971 1.2878.328118 1.53398.656236 3.06797.984354 4.60196.32861-1.53399.656728-3.06798.985338-4.60196.114128-.53476 3.437614-1.10738 4.055479-1.2878-.617865-.18091-3.941351-.75353-4.055479-1.28779-.32861-1.53399-.656728-3.06847-.985338-4.60246" fill="#fff" fill-rule="evenodd" stroke-miterlimit="10" stroke-width=".026808"/><path d="m44.324661 176.01147c-.328117 1.53399-.656235 3.06797-.984354 4.60296-.114128.53425-3.438105 1.10638-4.056463 1.28679.618358.18042 3.942335.75354 4.056463 1.28879.328119 1.53299.656237 3.06797.984354 4.60097.328119-1.533.656236-3.06798.984846-4.60097.114129-.53525 3.437615-1.10837 4.05548-1.28879-.617865-.18041-3.941351-.75254-4.05548-1.28679-.32861-1.53499-.656727-3.06897-.984846-4.60296" fill="#fff" fill-rule="evenodd" stroke-miterlimit="10" stroke-width=".026808"/><path d="m44.324661 192.50357c-.328117 1.53399-.656235 3.06798-.984354 4.60196-.114128.53426-3.438105 1.10738-4.056463 1.2878.618358.18041 3.942335.75254 4.056463 1.28779.328119 1.53399.656237 3.06797.984354 4.60196.328119-1.53399.656236-3.06797.984846-4.60196.114129-.53525 3.437615-1.10738 4.05548-1.28779-.617865-.18042-3.941351-.75354-4.05548-1.2878-.32861-1.53398-.656727-3.06797-.984846-4.60196" fill="#fff" fill-rule="evenodd" stroke-miterlimit="10" stroke-width=".026808"/><path d="m44.324661 208.99568c-.328117 1.53299-.656235 3.06798-.984354 4.60197-.114128.53424-3.438105 1.10738-4.056463 1.28679.618358.1814 3.942335.75353 4.056463 1.28779.328119 1.53498.656237 3.06798.984354 4.60295.328119-1.53497.656236-3.06797.984846-4.60295.114129-.53426 3.437615-1.10639 4.05548-1.28779-.617865-.17941-3.941351-.75255-4.05548-1.28679-.32861-1.53399-.656727-3.06898-.984846-4.60197" fill="#fff" fill-rule="evenodd" stroke-miterlimit="10" stroke-width=".026808"/><path d="m44.324661 160.69751c-.328117 1.53499-.656235 3.06797-.984354 4.60296-.114128.53426-3.438105 1.10638-4.056463 1.28779.618358.17942 3.942335.75254 4.056463 1.2878.328119 1.53298.656237 3.06797.984354 4.60096.328119-1.53299.656236-3.06798.984846-4.60096.114129-.53526 3.437615-1.10738 4.05548-1.2878-.617865-.18141-3.941351-.75353-4.05548-1.28779-.32861-1.53499-.656727-3.06797-.984846-4.60296" fill="#fff" fill-rule="evenodd" stroke-miterlimit="10" stroke-width=".026808"/><path d="m44.334992 94.727094c-.328117 1.533988-.656727 3.067975-.984846 4.601963-.114128.534751-3.437614 1.107383-4.055971 1.287793.618357.18041 3.941351.75354 4.055971 1.28779.328119 1.53399.656729 3.06797.984846 4.60196.328119-1.53399.656236-3.06797.984846-4.60196.114129-.53425 3.437615-1.10738 4.055972-1.28779-.618357-.18041-3.941844-.753042-4.055972-1.287793-.32861-1.533988-.656727-3.067975-.984846-4.601963" fill="#fff" fill-rule="evenodd" stroke-miterlimit="10" stroke-width=".026808"/><path d="m44.324661 78.238976c-.328117 1.533987-.656235 3.068472-.984354 4.60246-.114128.534752-3.438105 1.106883-4.056463 1.287792.618358.180409 3.942335.753039 4.056463 1.287791.328119 1.533987.656237 3.067974.984354 4.601962.328119-1.533988.656236-3.067975.984846-4.601962.114129-.534752 3.437615-1.107381 4.05548-1.287791-.617865-.180909-3.941351-.75304-4.05548-1.287792-.32861-1.533988-.656727-3.068473-.984846-4.60246" fill="#fff" fill-rule="evenodd" stroke-miterlimit="10" stroke-width=".026808"/><path d="m44.334992 61.743382c-.328117 1.534485-.656727 3.068472-.984846 4.602459-.114128.534254-3.437614 1.106884-4.055971 1.287792.618357.18041 3.941843.753039 4.055971 1.287791.328119 1.533988.656729 3.067975.984846 4.601962.328119-1.533987.656236-3.067974.984846-4.601962.114129-.534752 3.437615-1.10738 4.055972-1.287791-.618357-.180908-3.941844-.753538-4.055972-1.287792-.32861-1.533987-.656727-3.067975-.984846-4.602459" fill="#fff" fill-rule="evenodd" stroke-miterlimit="10" stroke-width=".026808"/><path d="m44.324661 45.255761c-.328117 1.533987-.656235 3.067974-.984354 4.601961-.114128.534753-3.438105 1.107382-4.056463 1.287792.618358.180411 3.942335.753039 4.056463 1.287792.328119 1.533987.656237 3.067974.984354 4.601961.328119-1.533987.656236-3.067974.984846-4.601961.114129-.534753 3.437615-1.107381 4.05548-1.287792-.617865-.18041-3.941351-.753039-4.05548-1.287792-.32861-1.533987-.656727-3.067974-.984846-4.601961" fill="#fff" fill-rule="evenodd" stroke-miterlimit="10" stroke-width=".026808"/><path d="m58.428325 144.22136c-.328118 1.53498-.656236 3.06797-.984354 4.60295-.11462.53426-3.438106 1.10639-4.056463 1.28779.618357.18042 3.941843.75255 4.056463 1.2878.328118 1.53298.656236 3.06797.984354 4.60196.328118-1.53399.656236-3.06898.984846-4.60196.114128-.53525 3.438106-1.10738 4.055972-1.2878-.617866-.1814-3.941844-.75353-4.055972-1.28779-.32861-1.53498-.656728-3.06797-.984846-4.60295" fill="#fff" fill-rule="evenodd" stroke-miterlimit="10" stroke-width=".026808"/><path d="m58.455381 127.73822c-.328117 1.53398-.656236 3.06797-.984354 4.60196-.11462.53426-3.437614 1.10639-4.055972 1.28779.618358.18041 3.941352.75354 4.055972 1.2878.328118 1.53398.656237 3.06797.984354 4.60196.32861-1.53399.656729-3.06798.984846-4.60196.11462-.53426 3.438107-1.10739 4.055972-1.2878-.617865-.1814-3.941352-.75353-4.055972-1.28779-.328117-1.53399-.656236-3.06798-.984846-4.60196" fill="#fff" fill-rule="evenodd" stroke-miterlimit="10" stroke-width=".026808"/><path d="m58.472107 111.2187c-.328118 1.53399-.656237 3.06847-.984354 4.60246-.11462.53426-3.438107 1.10688-4.056463 1.28779.618356.18042 3.941843.75304 4.056463 1.2878.328117 1.53398.656236 3.06797.984354 4.60196.328118-1.53399.656728-3.06798.984846-4.60196.11462-.53476 3.437614-1.10738 4.055972-1.2878-.618358-.18091-3.941352-.75353-4.055972-1.28779-.328118-1.53399-.656728-3.06847-.984846-4.60246" fill="#fff" fill-rule="evenodd" stroke-miterlimit="10" stroke-width=".026808"/><path d="m58.438656 176.01147c-.328118 1.53399-.656728 3.06797-.984847 4.60296-.114128.53425-3.437614 1.10638-4.055972 1.28679.618358.18042 3.941353.75354 4.055972 1.28879.328119 1.53299.656729 3.06797.984847 4.60097.328117-1.533.656236-3.06798.984353-4.60097.114621-.53525 3.438107-1.10837 4.056465-1.28879-.618358-.18041-3.941844-.75254-4.056465-1.28679-.328117-1.53499-.656236-3.06897-.984353-4.60296" fill="#fff" fill-rule="evenodd" stroke-miterlimit="10" stroke-width=".026808"/><path d="m58.438656 192.50357c-.328118 1.53399-.656728 3.06798-.984847 4.60196-.114128.53426-3.437614 1.10738-4.055972 1.2878.618358.18041 3.941844.75254 4.055972 1.28779.328119 1.53399.656729 3.06797.984847 4.60196.328117-1.53399.656236-3.06797.984353-4.60196.114621-.53525 3.438107-1.10738 4.056465-1.28779-.618358-.18042-3.941844-.75354-4.056465-1.2878-.328117-1.53398-.656236-3.06797-.984353-4.60196" fill="#fff" fill-rule="evenodd" stroke-miterlimit="10" stroke-width=".026808"/><path d="m58.438656 208.99568c-.328118 1.53299-.656728 3.06798-.984847 4.60197-.114128.53424-3.437614 1.10738-4.055972 1.28679.618358.1814 3.941844.75353 4.055972 1.28779.328119 1.53498.656729 3.06798.984847 4.60295.328117-1.53497.656236-3.06797.984353-4.60295.114621-.53426 3.438107-1.10639 4.056465-1.28779-.618358-.17941-3.941844-.75255-4.056465-1.28679-.328117-1.53399-.656236-3.06898-.984353-4.60197" fill="#fff" fill-rule="evenodd" stroke-miterlimit="10" stroke-width=".026808"/><path d="m58.438656 160.69751c-.328118 1.53499-.656728 3.06797-.984847 4.60296-.114128.53426-3.437614 1.10638-4.055972 1.28779.618358.18042 3.941844.75254 4.055972 1.2878.328119 1.53298.656729 3.06797.984847 4.60096.328117-1.53299.656236-3.06798.984353-4.60096.114621-.53526 3.438107-1.10838 4.056465-1.2878-.618358-.18141-3.941844-.75353-4.056465-1.28779-.328117-1.53499-.656236-3.06797-.984353-4.60296" fill="#fff" fill-rule="evenodd" stroke-miterlimit="10" stroke-width=".026808"/><path d="m58.448494 94.727094c-.328117 1.533988-.656236 3.067975-.984354 4.601963-.114128.534751-3.437614 1.107383-4.055972 1.287793.618358.18041 3.941844.75354 4.055972 1.28779.328118 1.53399.656237 3.06797.984354 4.60196.32861-1.53399.656729-3.06797.984846-4.60196.11462-.53425 3.438106-1.10738 4.055972-1.28779-.617866-.18041-3.941352-.753042-4.055972-1.287793-.328117-1.533988-.656236-3.067975-.984846-4.601963" fill="#fff" fill-rule="evenodd" stroke-miterlimit="10" stroke-width=".026808"/><path d="m58.438656 78.238976c-.328118 1.533987-.656728 3.068472-.984847 4.60246-.114128.534752-3.437614 1.106883-4.055972 1.287792.618358.180409 3.941844.753039 4.055972 1.287791.328119 1.533987.656729 3.067974.984847 4.601962.328117-1.533988.656236-3.067975.984353-4.601962.114621-.534752 3.438107-1.107381 4.056465-1.287791-.618358-.180909-3.941844-.75304-4.056465-1.287792-.328117-1.533988-.656236-3.068473-.984353-4.60246" fill="#fff" fill-rule="evenodd" stroke-miterlimit="10" stroke-width=".026808"/><path d="m58.448494 61.743382c-.328117 1.534485-.656236 3.068472-.984354 4.602459-.114128.534254-3.437614 1.106884-4.055972 1.287792.618358.18041 3.941844.753039 4.055972 1.287791.328118 1.533988.656237 3.067975.984354 4.601962.32861-1.533987.656729-3.067974.984846-4.601962.11462-.534752 3.438106-1.10738 4.055972-1.287791-.617866-.180908-3.941352-.753538-4.055972-1.287792-.328117-1.533987-.656236-3.067975-.984846-4.602459" fill="#fff" fill-rule="evenodd" stroke-miterlimit="10" stroke-width=".026808"/><path d="m58.438656 45.255761c-.328118 1.533987-.656728 3.067974-.984847 4.601961-.114128.534753-3.437614 1.107382-4.055972 1.287792.618358.180411 3.941844.753039 4.055972 1.287792.328119 1.533987.656729 3.067974.984847 4.601961.328117-1.533987.656236-3.067974.984353-4.601961.114621-.534753 3.438107-1.107381 4.056465-1.287792-.618358-.18041-3.941844-.753039-4.056465-1.287792-.328117-1.533987-.656236-3.067974-.984353-4.601961" fill="#fff" fill-rule="evenodd" stroke-miterlimit="10" stroke-width=".026808"/><path d="m17.861231 16.395074c-2.370124 0-1.512197 6.55159-1.512197 7.860314v17.948845 59.358027 127.24668 15.81631c0 1.78815-.670993 5.5997 1.938701 5.5997h40.310798 110.018417c2.76858 0 2.22844-2.99721 2.22844-5.01761 0-5.05049 0-10.10098 0-15.15248 0-18.71285 0-37.42769 0-56.14153 0-43.44005 0-86.880591 0-130.321133 0-6.187779 0-12.376554 0-18.564833 0-2.085185.47127-4.815762 0-6.865065 0-3.039567-8.52024-1.767225-10.19969-1.767225-8.03029 0-16.05958 0-24.08889 0-38.63626 0-77.273017 0-115.909282 0-.928766 0-1.857532 0-2.786297 0" fill="none" stroke-miterlimit="10" stroke-width="1.286449"/></g></svg>